<?xml version="1.0" standalone="no"?>
<!DOCTYPE svg PUBLIC "-//W3C//DTD SVG 20010904//EN"
 "http://www.w3.org/TR/2001/REC-SVG-20010904/DTD/svg10.dtd">
<svg version="1.0" xmlns="http://www.w3.org/2000/svg"
 width="700.000000pt" height="700.000000pt" viewBox="0 0 700.000000 700.000000"
 preserveAspectRatio="xMidYMid meet">
<metadata>
Created by potrace 1.14, written by Peter Selinger 2001-2017
</metadata>
<g transform="translate(0.000000,700.000000) scale(0.100000,-0.100000)"
fill="#000000" stroke="none">
<path d="M4440 6995 c0 -3 46 -52 103 -108 390 -388 649 -857 744 -1349 10
-54 17 -147 18 -268 l2 -185 233 -227 c128 -126 237 -228 243 -228 17 0 1 378
-23 515 -124 726 -531 1335 -1190 1781 -101 68 -130 83 -130 69z"/>
<path d="M2220 6734 c-167 -13 -502 -73 -524 -95 -6 -5 43 -9 125 -9 461 -1
899 -95 1228 -265 180 -93 317 -193 503 -366 l106 -99 314 1 c172 1 323 4 336
7 21 7 17 12 -50 78 -360 353 -798 589 -1288 693 -208 44 -553 69 -750 55z"/>
<path d="M4523 6035 c3 -11 24 -69 46 -128 49 -125 109 -338 118 -416 l6 -53
-74 54 c-86 64 -244 160 -344 210 -95 48 -349 148 -375 148 -20 0 -21 -1 -5
-28 9 -15 105 -134 213 -264 109 -131 206 -251 215 -268 l19 -31 -29 13 c-15
7 -64 32 -108 54 -44 23 -125 61 -180 84 -90 38 -109 51 -196 135 -235 225
-556 378 -937 446 -142 25 -438 47 -452 33 -7 -7 24 -26 97 -60 196 -89 351
-182 504 -301 l74 -58 -125 -12 c-145 -13 -235 -27 -340 -53 -285 -71 -551
-202 -788 -388 -54 -42 -124 -86 -157 -100 -170 -68 -381 -199 -558 -345 -112
-93 -194 -173 -185 -182 3 -3 51 12 107 34 56 22 142 52 192 66 87 26 91 26
104 9 12 -17 17 -17 106 15 149 53 182 60 317 67 l127 7 -45 -52 c-256 -301
-408 -560 -509 -866 -36 -110 -65 -175 -107 -245 -146 -242 -243 -554 -273
-880 -13 -139 -14 -260 -2 -260 4 0 23 35 40 77 76 182 236 456 252 431 5 -7
9 -23 9 -34 0 -50 44 -237 84 -358 53 -160 115 -302 190 -432 l57 -99 -83 80
c-46 44 -133 129 -195 189 -93 91 -113 107 -119 92 -20 -51 16 -454 58 -646
122 -572 505 -1156 1002 -1530 107 -79 279 -190 297 -190 6 0 -51 62 -128 138
-157 155 -239 254 -353 425 -238 357 -370 751 -387 1157 l-6 145 22 -19 c11
-11 24 -16 29 -12 11 12 5 181 -18 474 -11 144 -20 268 -20 275 0 6 25 -33 54
-88 l54 -100 5 -130 c17 -359 180 -752 454 -1090 88 -108 203 -226 203 -208 0
6 -16 53 -36 104 -81 209 -128 409 -149 634 l-7 70 49 -46 c300 -286 689 -466
1118 -518 52 -6 105 -21 150 -41 270 -123 579 -190 868 -190 l132 0 -113 49
c-117 52 -243 117 -326 170 -55 34 -62 29 74 56 152 31 280 70 280 85 0 13
-108 45 -409 120 -157 39 -291 75 -299 79 -9 5 38 18 129 35 259 49 467 110
653 193 81 35 117 45 195 53 351 37 768 227 1091 498 100 85 177 159 169 166
-2 2 -56 -16 -119 -40 -181 -69 -390 -123 -539 -140 l-64 -7 65 84 c234 300
381 670 438 1104 13 101 26 157 45 200 87 191 164 609 153 830 l-3 70 -45 -95
c-80 -172 -131 -263 -215 -390 -76 -114 -254 -328 -281 -337 -7 -3 -13 41 -17
134 -14 321 -106 655 -256 924 -32 58 -56 117 -71 180 -67 275 -190 534 -366
770 -83 112 -259 297 -251 264z m-611 -1155 c183 -80 318 -172 449 -307 179
-184 279 -376 336 -644 24 -118 24 -386 -1 -526 -10 -57 -16 -107 -14 -113 1
-5 57 70 124 167 66 97 126 179 133 181 16 5 11 -58 -15 -210 -35 -208 -129
-433 -243 -585 -205 -272 -522 -448 -906 -503 -105 -15 -123 -20 -104 -30 8
-4 102 -33 209 -65 107 -31 199 -60 203 -65 9 -8 -76 -30 -193 -50 -111 -18
-347 -24 -440 -11 -398 59 -741 331 -976 776 -31 59 -58 105 -59 103 -2 -2 1
-101 7 -222 6 -137 6 -222 0 -228 -12 -12 -66 75 -132 214 -145 306 -168 636
-65 944 65 192 181 377 347 549 61 63 105 115 99 115 -6 0 -88 -27 -183 -61
-95 -34 -189 -63 -208 -66 l-35 -6 30 34 c153 174 299 291 473 378 372 187
788 175 1197 -34 69 -35 125 -60 125 -55 0 5 -58 84 -130 177 -118 153 -139
183 -126 183 3 0 47 -18 98 -40z"/>
<path d="M2235 5793 c-538 -23 -964 -159 -1390 -444 -318 -213 -599 -502 -794
-816 -28 -46 -51 -88 -51 -94 0 -6 64 51 143 127 240 234 441 380 698 508 284
142 543 209 874 227 l200 11 234 234 c129 129 232 236 230 238 -9 7 -77 12
-144 9z"/>
<path d="M6627 5078 c-6 -269 -26 -437 -77 -631 -103 -397 -260 -684 -542
-989 l-109 -118 3 -319 c2 -176 7 -323 11 -327 4 -4 39 23 78 62 307 300 545
722 664 1178 116 440 122 889 19 1276 -14 52 -29 99 -33 103 -5 5 -11 -101
-14 -235z"/>
<path d="M989 4228 c-211 -227 -327 -394 -454 -653 -271 -549 -340 -1131 -208
-1750 14 -66 29 -126 33 -133 4 -8 10 76 13 185 8 232 28 421 63 588 93 441
278 798 562 1083 l102 103 0 340 c0 186 -4 339 -8 339 -5 0 -51 -46 -103 -102z"/>
<path d="M6885 2459 c-491 -496 -1074 -759 -1684 -759 l-106 0 -239 -239 -239
-239 59 -6 c69 -8 330 8 460 29 428 68 839 251 1194 532 117 92 350 327 448
450 44 56 110 147 146 202 110 167 102 173 -39 30z"/>
<path d="M2765 1004 c457 -436 969 -670 1585 -725 281 -25 684 7 925 73 67 18
17 27 -161 27 -678 3 -1230 211 -1664 628 l-97 93 -344 0 -344 -1 100 -95z"/>
</g>
</svg>
