<svg version="1" xmlns="http://www.w3.org/2000/svg" width="1318.667" height="1318.667" viewBox="0 0 989.000000 989.000000"><path d="M478.1.9c-.7.5-4.1.6-7.5.4l-6.3-.5-2.1 3.6C460.6 7 459.4 8 457.5 8c-1.5 0-2.5.6-2.5 1.4 0 .8-1 1.8-2.2 2.2-2.9.8-5.8 3.3-5.8 5 0 1.8 7.4 2.8 11.5 1.4 2.4-.8 3.7-1.9 4.1-3.6.5-1.9 1.2-2.4 3.8-2.3 1.7.1 2.3.3 1.4.6-2.4.6-2.3 2.9.2 3.6 1.6.4 2 1.4 2 5.1 0 4.1-.3 4.6-2.5 5.2-1.4.4-2.8.4-3.1.1-1.1-1-6.4 4.6-6.4 6.8 0 2.6-1.8 4.5-4.3 4.5-1.6 0-1.8-.4-1.2-2.3 2.6-8.1 1-12.6-3.9-10.7-2.6 1-3.7 4.3-3.3 10.5.2 2.9 0 3-3.3 2.7-1.9-.2-3.9-.7-4.3-1.2-.5-.4-.6-3.4-.3-6.6.4-3.3.7-8.1.6-10.7 0-3.8.5-5.3 2.1-6.6 1.9-1.5 2-2.1 1-4-.9-1.6-.9-2.6-.1-3.6.7-.9.8-1.5.1-2-1-.5-27.1 2.7-32.9 4.2-2.1.5-2.2.6-.5 1.9 1.1.8 3 1.1 5 .8 1.7-.3 4-.1 5 .5 1.6.9 1.4 1.1-1.5 1.7-3.8.8-5 2.7-3.2 4.9 1.8 2.2 7 2 7-.3 0-2.6 2-4.2 5.1-4.2 3.5 0 4.1 1.7 4.1 12.8 0 9.8-1.1 13.7-4 14.4-1.7.5-2.1-.1-2.7-3.8-.3-2.4-1-4.4-1.6-4.4-.5 0-.9-.9-.9-2 0-1.5-.7-2-2.8-2-2.1 0-3 .7-4 3-.8 1.6-1.8 3-2.2 3-1.4 0-3-7-3-13.2 0-6.9-1.7-8.4-8.4-7.3-6.3 1-10.7 1.1-15.1.3l-4.1-.8.4 3.3c.3 2.9.1 3.2-2.2 3.2-1.6 0-3-.8-3.7-2.3-1.4-2.6-1.2-2.6-6.9-.8-4.2 1.4-4.3 1.5-1.4 1.5 5.1.1 6 2.3 2.5 6.2-2.7 3-3.3 3.1-5.6 2.1-1.4-.7-3.1-2.6-3.7-4.3-.8-2.2-1.5-2.9-2.7-2.4-.9.4-2.8.9-4.2 1.2-1.8.3-3 1.5-4 3.9-1.6 4.1-3.4 6-4.4 4.4-.3-.6-1.1-.8-1.6-.5-.5.4-.9-.5-.9-1.9v-2.5l-9.7 3.3c-33.6 11.5-73.5 30.8-103.6 50.2l-9.7 6.3v7.8c0 4.3-.5 9.4-1.1 11.3-.5 1.9-1 5-1.1 6.8 0 1.9-.6 4.6-1.4 6-.8 1.5-1.4 3.5-1.4 4.6 0 1-.9 3.3-1.9 5-1 1.7-2.2 4.6-2.6 6.5-1.8 8.3-11.6 22.5-16.9 24.4-2 .8-10.6-2-10.6-3.4 0-.4 1-.9 2.2-1.1 1.5-.2 2.5-1.3 3.2-3.6.5-1.9 2.5-4.6 4.6-6.2 2.6-2 4-4.1 4.4-6.5.4-1.9 1.3-4.7 2.1-6.2s1.5-3.3 1.5-3.9c0-.5 1.2-2.6 2.6-4.5 2.1-2.9 2.5-4.1 2-7.8-.5-3.3-.2-4.7.9-5.5 1.1-.8 1.7-3.5 2.1-8.4.5-7.1.4-7.3-1.5-6.3-2.9 1.6-24.5 18.5-33.1 26-13.3 11.6-17.1 15.4-15.7 16.3.9.6.9 1.2-.1 2.9-.9 1.4-1.1 3.7-.7 6.8.8 6.1-.9 8.6-5.3 7.6-4.6-1-5.3-4.5-1.8-9.8 1-1.5 1.6-3 1.4-3.3-.8-.7-13.5 13.2-15.4 16.8-1.9 3.6-3.1 15.2-1.8 16 1.6 1 12.1-1.7 14.1-3.5 1.1-.9 2.4-1.7 3-1.7.6 0 1.6-.7 2.3-1.5 1.5-1.8 5.5-1.9 9.8-.4 2.2.7 3.3 1.9 3.7 3.9.4 1.8 1.6 3.2 3.5 4 2.2.9 3.1 2.1 3.6 4.7.9 4.9 0 11.1-2.5 16.5-1.1 2.6-2.1 5.1-2.1 5.6 0 .4-1.6 2.7-3.6 5-3.3 3.9-3.9 4.2-8.4 4.2-3.8 0-5.4-.5-7-2.2-1.1-1.2-2-2.6-2-3.2 0-.5-.8-1.9-1.8-3-1-1.2-2.6-4.1-3.5-6.5-1.6-4.2-1.6-4.5.6-8.3 2.2-3.8 2.2-3.9.3-5.3-1.1-.8-3.2-1.5-4.7-1.5-1.8 0-2.8-.6-3.2-2-.7-2.6-2.3-2.5-4.2.3-1.9 3-3.6 19.9-2.5 25.6 1 5.3.4 7.1-2 7.1-1.1 0-2.2.4-2.5 1-1 1.6-4.2 1.2-4.9-.6-1.1-2.7-.6-7.9.8-9.9 1.3-2 2-7 1.7-12.8-.1-2.3-.9-3.2-4.6-4.8-2.5-1.1-4.9-1.8-5.3-1.5-1.8 1.1-17.5 21.9-26.4 35.1-10.4 15.3-18.9 29.2-26.2 42.7-5 9.2-5.3 12.3-2 18.7.8 1.4 1.4 3.2 1.4 3.9 0 3.1 3.1 7.1 6.2 8 3.6 1.1 32.4.9 37.4-.2 3-.7 12.2-10 13.7-13.9.3-.9 1.2-1.7 2-1.7.7 0 2.4-1.1 3.7-2.5 2.1-2.2 2.4-3.6 2.5-10.8.1-4.5.7-10.7 1.4-13.7s1.6-6.8 2-8.4c1-4.4 2.7-4.2 5.1.4 1.7 3.4 1.9 4.7 1 7.8-.5 2-1 6.5-1 9.9v6.2l3.7-.6c8-1.3 9.4-.8 13.2 4.7 3.3 4.9 3.3 5.2 2.9 13.3-.3 5.3-1 9-1.9 10.1-3.9 4.6-5.1 5.4-7.3 4.7-3.1-1.2-3.1-3.7 0-8.3 5.5-7.9 2.8-15.4-6.1-17.5-5.4-1.2-6.5-.3-6.6 5.3 0 2.2-.9 7.5-1.9 11.9-2.2 9.8-3.7 17.6-4.5 23.5-.6 4.6-2 7.9-2.9 6.9-.3-.3-.8-4.4-1-9.1-.3-4.7-1.1-9.7-1.7-11.2-1.1-2.2-1-3.5.5-7.7 2-5.5 1.2-7.9-2.6-7.6-1.8.1-2 .7-1.6 6l.4 6-5 2.3c-4.8 2.2-5.8 2.3-22.6 1.8-31.6-.9-36.5-1.1-40.8-2.4-2.3-.7-4.5-1.1-4.8-.8-1 1.1-10.5 25.3-15 38.3-49.1 142.3-31.3 298.1 48.5 425 24.3 38.7 57.2 77.5 90 106.4l8.4 7.3 5.1-.6c2.8-.4 11.2-1.1 18.6-1.6 17.4-1.1 18.3-1.4 17.7-5.4-.3-1.7.2-8.5.9-15.1.8-6.6 1.1-12.7.8-13.7-.3-1.1.8-3 3.1-5.5 2.2-2.4 3.5-4.7 3.5-6.4 0-3.7-2-4.8-3.8-2.1-1.1 1.6-2.5 2.2-5.3 2.2-2.2 0-3.9-.4-3.9-1 0-1.7 4.5-5.1 6.2-4.7 1.8.5 1.8.4-2-7-3.4-6.6-3-15.3.6-13.7 1 .4 3.2.9 5 1.2 3 .4 3.2.3 3.2-2.7 0-2.6-.5-3.4-2.8-4.2-4.5-1.6-5.5-4.1-4.1-11 1-5 1.9-6.7 5-9.7 2.2-1.9 3.9-4.3 3.9-5.2 0-.9.4-2 .9-2.6.5-.5 1.2-3 1.6-5.7.7-4.3.6-4.7-1.4-4.7-1.6 0-2.1.6-2.1 2.8 0 3.4-1.6 5.2-4.7 5.2-1.5 0-2.7.9-3.5 2.5l-1.1 2.4-2.8-2c-2.2-1.5-2.9-2.8-2.9-5.2.1-5.2 1.8-11.1 3.7-12.5 1.2-1 1.4-1.6.6-1.9-.7-.2-2.2-2-3.4-3.9l-2.1-3.5 2.1-2.3c1.8-1.9 1.9-2.5.8-4.1-1.2-1.8-1.3-4.2-.7-17 .1-1.1-.4-4.3-1-7-1.6-7.2-1.8-21.3-.3-26.2.7-2.3 1.1-5.8.9-7.9-.4-4.2.9-9 3.1-11.5 1-1.3 1.1-2.3.3-4.5-.6-1.6-1.6-3.1-2.1-3.4-.5-.4-1.4-3.3-2-6.6-.6-3.2-1.3-7-1.6-8.3-.4-2.2-.5-2.3-2.1-.8-1.1 1.1-1.5 3-1.3 5.6.3 4.5-2.5 15.6-4.4 17.1-2.1 1.7-6-2.8-8.2-9.5-3.8-11.4-4.4-14-4.6-19-.2-4.5-.5-5.1-3.3-6.5-3.6-1.8-5.3-3.4-7.6-7.7-2.6-4.6-2.2-7.6 1.7-12.4 4.4-5.2 5.1-6.4 5.9-11.2.4-2 2.3-7 4.1-10.9 1.9-4 3.5-7.9 3.5-8.8 0-.8 2.5-4.2 5.4-7.5l5.4-6 8.3.2c23.1.4 29.4.2 30.2-1 1.3-2-.1-17.4-4.3-46.7-.5-3.6-1-8.5-1-11-.1-4.7-2.5-8.6-6.8-10.9-1.8-.9-2.1-.7-3.1 1.9-.5 1.7-1.5 3-2 3-2.3 0-.9 2.9 1.9 3.8 6.7 2.4 9.4 21.2 3 21.2-1.3 0-2.9-2-5.4-6.8-3.5-6.6-3.7-6.7-7.7-6.8-4.5 0-7.2-2.5-8.7-7.9-.9-3.3-4.3-5.4-13.2-8.1-4.7-1.5-6.9-3.1-15.7-11.9-5.7-5.6-10.3-10.7-10.3-11.2 0-.6-.6-1.6-1.4-2.2-1.6-1.4-9.5-17-12.6-24.9-2.6-6.9-2.9-25.8-.4-31.8 2.7-6.4 6-9.1 12.9-10.4 7-1.3 11.4-.5 19.3 3.5 2.5 1.3 4.9 2.2 5.1 2 .2-.3.4-4.9.5-10.2.2-16.6 5.4-27.2 15.7-32.1 6.2-2.9 11.8-3.6 14.9-1.7 1.4.8 3.6 2 4.9 2.7 5.7 3 16.9 14.1 20.1 19.9 4.7 8.5 8 15.4 8 16.6 0 .7.9 3 2 5 1.1 2.1 2 4.9 2 6.3 0 1.4.7 3.8 1.6 5.5 2.4 4.6 2.5 24.2.2 27.5-1 1.3-1.8 3.2-1.8 4 0 .9-1.2 3.2-2.6 5.1-2.4 3.2-2.5 3.9-1.9 11.2.7 7.2.5 8-1.5 10.2-2.4 2.6-2.4 6.2.1 12.3 1.2 2.9 1.2 3.7-.4 6.3-1.9 3.4-2.3 11-.6 14.1.6 1.1 1.5 6.2 1.9 11.3.7 7.4 1.5 10.1 3.5 13 1.4 2.1 2.5 4.4 2.5 5.1 0 .8.4 1.4.9 1.4s1.4 1.2 2 2.7c2.4 6.1 7 13.2 11 16.9l2.5 2.3 1.8-2.9c1.5-2.5 2.4-3 5.7-3 3.4 0 4.2.4 6 3.5 2.3 4 5.4 4.6 7.1 1.5.6-1.1 2.5-2.7 4.3-3.6 1.8-.9 5-3.5 7.2-5.8 3.2-3.4 5.7-4.8 12-6.9 10.6-3.6 16.8-3.5 28 .3 4.9 1.7 10.5 3 12.4 3 3.5 0 3.5 0 1.3-1.6-1.2-.8-2.2-2-2.2-2.6 0-.6-.6-1.9-1.4-2.7-1-1.2-1.5-5.7-1.8-17.5l-.3-16h4l4-.1.3-4.8c.2-3.1-.1-4.7-.9-4.7-1.2 0-.4-15.5 1.1-19.4.6-1.8.9-1.5 1.9 1.7.7 2 1.7 3.7 2.2 3.7.5 0 .9.7.9 1.5 0 .9 1.1 3.7 2.5 6.3 1.4 2.6 2.5 5.5 2.5 6.6 0 1 .8 3.7 1.9 6 1 2.3 3.1 8.1 4.7 13.1 1.6 4.9 3.8 10.1 5 11.5 3.2 3.8 4.3 7.7 4.9 17.2l.5 8.8 4.5 4.1c6 5.6 13 9.9 16 9.9 1.3 0 3.5.4 4.9 1 1.8.6 2.7.6 3.2-.2.8-1.3-11.2-12.8-13.4-12.8-.7 0-1.5-.7-1.8-1.5-.4-.8-1.1-1.5-1.8-1.5-.6 0-2.3-1.6-3.8-3.4-2.1-2.6-2.8-4.6-2.8-7.8 0-5 .3-5.5 5.1-9.1 6.6-4.9 14.9-2.4 14.9 4.6 0 2.1.6 2.8 2.8 3.3 1.5.3 4.9 1.3 7.5 2.2 5.4 1.8 8 1 8.5-2.6.6-3.8 9.4-4.9 13.2-1.6.8.7 3.6 1.8 6.3 2.4 3.6 1 4.9 1.8 5.3 3.5 1.3 5.2-.6 7.1-10.9 11-3.2 1.2-6.9 3.9-10.6 7.7-5.4 5.5-8.1 6.7-12.5 5.9-.6-.1-2.1.1-3.4.4-3.4.9-1.7 2.1 4.8 3.4 3 .6 6.9 1.8 8.5 2.5 1.7.8 3.8 1.7 4.7 2 .9.3 2.8 2.3 4.2 4.5 1.4 2.2 3.7 4.8 5.2 5.8 5.4 3.7 7.4 6.2 7.4 9.2 0 2.6-.4 3.1-3.5 3.7-2.6.5-4.4.1-7.1-1.5-6.8-4-14.4-6.1-22.5-6.1-7.5 0-7.8.1-10.8 3.5-2 2.3-3.9 3.5-5.6 3.5-2.1 0-2.5.5-2.5 2.9 0 1.6.7 3.4 1.5 4.1.8.7 1.9 2.7 2.3 4.4l.9 3.1 2-3.3c1.2-2 2.4-2.9 2.7-2.3 1.1 1.8 4.5 1.2 5.6-.9 1.6-2.9 4.6-2.5 6.7 1 2.1 3.6 3.6 3.8 5.7.8 2.9-4.1 4 1.6 1.4 6.9-1.8 3.5-.3 6.9 2.3 5.2 2-1.3 7.2 0 8.7 2.2 2 2.9 6.3 4.7 9.8 4.2 2-.3 4.6.3 7.3 1.6 4 2.1 4.1 2.2 2.4 4-2.4 2.5-13.9 4.6-18.4 3.3-1.9-.5-6-.7-9.1-.4-4.4.3-6.1.1-7.3-1.2-.9-.9-2.3-1.6-3.1-1.6-2.5 0-10.4-8.2-10.4-11-.1-1.4-.7-3.9-1.4-5.5-1.2-2.7-1.5-2.8-2.1-1.1-.5 1.1.1 6.3 1.5 12.5 1.2 5.8 2.6 14 2.9 18.1.4 4.1 1.2 8.4 1.9 9.6.6 1.1 1.6 5.8 2.1 10.4.6 4.6 1.2 8.5 1.4 8.6.2.2 1-1.2 1.7-3.1 1.9-4.8 4.3-4.3 5 1 .4 3.5.9 4 3.3 4.3 2.8.3 3.1-.3 3-7.1 0-2.3 3.4-2.2 4.7.2.5 1.1 1 2.9 1 4.1 0 2.9 2.3 2.1 3-1 .5-2.3 3.1-3.7 7.1-3.9 2.3-.1 3.2 2.7 1.4 4.5-.8.9-1.5 2-1.5 2.5 0 1.5 3.9 4.9 5.7 4.9.9 0 2.6.9 3.7 1.9 2.4 2.2 6.4 3.1 6.7 1.6.1-.6 1.1-1.6 2.1-2.4 4.5-3.1 6.2 4.4 1.8 8.4-1.6 1.4-2 1.4-3.1.2-1.2-1.2-1.7-1.2-3.6.7-1.2 1.1-4.1 2.8-6.4 3.6-3.9 1.4-4.4 2-5.8 6.8-.8 2.8-2.1 5.2-2.8 5.2-.7 0-1.3-.5-1.3-1 0-.6-.7-1-1.5-1-1 0-1.5 1-1.5 2.9 0 2-1.2 4.2-3.9 7.1-3.5 3.7-4.4 4.2-7.5 3.8-2-.2-3.6-.1-3.6.2 0 .9-3.2.6-4.7-.3-.7-.4-1.6-3.1-1.9-6-.7-4.9-.8-5.1-1.6-2.2-.5 1.6-1 9.4-1.1 17.1-.2 11.9.1 14.5 1.4 16 1 1.1 1.9 4.5 2.2 8.2.4 4.6 1.1 7 2.6 8.6 1.2 1.2 2.1 2.6 2.1 3.1s.6 1.6 1.3 2.4c2.6 3 5.9 15.6 6.4 24.1.3 4.7 1.2 9.7 1.9 11.2.8 1.5 1.4 4.2 1.4 6.1 0 4.7-2.8 18.2-5 23.7-.9 2.5-2 7-2.4 10.1-.3 3.1-1.3 6.9-2.1 8.5-.8 1.6-1.5 4.3-1.5 6 0 1.7-.8 4.2-1.9 5.5-1 1.3-2.4 4.8-3.1 7.7-.6 2.8-1.6 5.5-2.1 5.8-.5.3-.9 1.4-.9 2.4 0 1.7-1.7 4.2-6.2 9.1-1.7 1.8-1.7 1.9 1.2 1.9 1.7 0 3-.5 3-1 0-.6 1.1-1.6 2.5-2.2 1.7-.8 2.5-1.9 2.5-3.6 0-3.4 5.1-11.3 7-10.9 2.4.4 2 10.5-.5 12.3-1.7 1.3-1.6 1.4 1.8 1.4 3.5 0 3.7-.2 3.7-3 0-1.8.6-3.3 1.5-3.6 1.8-.7 2-4 .3-4.7-.9-.4-.6-1.1.9-2.4 2.4-2 3-5.1 1.8-10.5-.4-2.1-.4-4.9-.1-6.4.6-2.1 1.1-2.5 3.9-2.2 2.8.3 3.3-.1 4.2-2.9 1.7-5.2 2.5-5 2.5.5 0 4-.5 5.6-2 6.9-3.2 2.7-2.5 5.1 1.7 6.2 4.3 1.2 7.3-.6 7.3-4.6 0-1.8.5-2.3 2.5-2.3 1.5 0 2.5.6 2.5 1.5 0 3.5-2.5 15.5-3.2 15.5-.4 0-.8 1-.8 2.1 0 2 .4 2.1 6.1 1.7 4-.3 6.6-1 7.3-2 .9-1.2 3.1-1.6 10.1-1.5 7.3 0 9.7-.4 13-2.2 2.8-1.5 5.7-2.1 10-2.1 3.3 0 6.9-.6 8-1.3 1.1-.7 4.4-1.9 7.3-2.5 3-.7 6.5-2.1 7.8-3.1 1.4-1.1 3.3-1.7 4.4-1.4 1.9.5 9-1.2 26.9-6.3 4.6-1.3 10-2.4 12-2.4s5.6-.7 8.1-1.6c2.9-1 7.7-1.5 13.2-1.5 4.8.1 8.9-.3 9.2-.8.3-.4-.3-2.6-1.3-4.7-2.6-5.5-3.1-13.5-2.9-41.5.1-21.8.1-37.5-.1-48-.1-2.5-1.1-4.7-3.4-7.5-2.5-2.9-3.5-5.2-4-8.9-.3-3.4-1.2-5.5-2.7-6.7-1.2-1-1.7-1.8-1.1-1.8 2.2 0 7.1-6.3 7.1-9.1 0-3.7-3.2-6.9-6.8-6.9-1.7 0-3.7-.9-4.8-2.1-1.9-2.1-1.9-2.1 1.1-4.5 1.7-1.3 3.4-2.4 3.8-2.4.5 0 .5-.4.2-1-.3-.5-.2-1 .3-1 1.8 0 1.2-10.2-.9-14.6-1-2.4-1.9-5-1.9-5.8 0-.8-.4-1.8-1-2.1-.5-.3-1-1.9-1-3.5 0-9.8-4.3-17.8-9.8-18.2-2.9-.2-4.6-1.6-2.2-1.9 4.1-.5 5.2-1.8 4.5-4.8-.4-1.4-.8-5.3-1-8.5-.5-7.9-2.2-9.4-3.1-2.8-.7 5.8-1.6 6.9-5.8 7.4-2.3.2-3.6 1.3-5.6 4.8-2.5 4.3-2.8 4.5-7.6 4.7-2.7.1-4.4 0-3.7-.3.7-.3.9-1.2.6-2-.3-.8.1-2.2 1-3.2 2.1-2.4 3-6.1 1.9-7.5-.5-.7-1.3-2.5-1.9-4.1-.8-2.7-1.2-2.9-7.7-3.1-3.7-.2-7.1-.6-7.4-1-.4-.4-.7-4.9-.7-10.1 0-5.2-.3-9.4-.7-9.4-.5 0-.8-.9-.8-2s-.5-2-1.2-2c-.6 0-2.6-1.6-4.4-3.6-1.8-2-3.7-3.3-4.2-3-.5.3-1 3.2-1.1 6.6-.2 6.4 1.2 8 3.7 4 2.1-3.4 3.8-2.4 3.4 2-.5 4.5-1.6 5.7-3.7 4-1.2-1-2-.9-3.9.4-2.9 1.9-4.1.7-3.8-3.5.1-1.5-.2-3.9-.8-5.4-1-2.7-1.1-2.7-3-1-1.1 1-2 2.4-2 3.1 0 .6-1.6 2.1-3.5 3.3-2.1 1.2-3.5 2.8-3.5 3.9 0 3.2-2.3 4.4-4.8 2.6-4-2.7-2.9-7.2 2.9-12.8l5.1-4.9-2.3-1.8c-1.5-1.2-4.3-1.9-7.4-2l-5-.2 4.3-.6c4-.5 4.5-.9 5.7-4.4 1.2-3.5 1.1-4.1-.7-5.9l-2-2 4.3.6c2.4.3 6.3.8 8.7 1.2 4.7.7 5.4-.4 2.2-3.6-1.1-1.1-2.3-3.4-2.7-5-.3-1.6-1.2-3.5-1.9-4.1-.8-.6-1.1-1.5-.8-2 .7-1.2 7.4-1.1 7.4.1 0 .5.7 1 1.5 1 2.5 0 .5-2.9-3.4-5.1-2-1-4.3-2.3-5.1-2.8-.8-.5-3.1-1.7-5.2-2.7-2.5-1.2-3.8-2.6-4.2-4.5-.3-1.7-1.6-3.3-3.3-4.1-3.2-1.5-7.1-8.9-7.9-15.2-.4-2.5 0-6.2.9-9.4.9-2.8 1.3-5.3.9-5.3-.4-.1-3.6-.2-7.2-.3-3.6-.1-7.4-.8-8.6-1.5-2.1-1.4-6.4-9.7-6.4-12.5 0-2.6 3.5-1.8 6.9 1.6 3.6 3.7 8.4 4.2 12.8 1.2 4.3-2.7 8.8-3.4 11.4-1.6 1.6 1.1 5.4 1.6 14.7 1.8 7.6.2 14.7 1 18 1.9 3 .9 5.6 1.4 5.9 1.1 1.2-1.1-1.9-4.4-4.8-5-1.8-.3-4-1.2-4.8-2-.9-.7-3.3-1.9-5.3-2.5-2-.7-5.3-2.5-7.3-4.1-2-1.6-5.3-3.4-7.3-4.1-2-.6-5.6-2.4-8.1-3.9-4.7-2.7-24-12.4-25.3-12.6-.5-.1-1.1-.3-1.5-.4-.5-.1-2-.1-3.5 0-3.6.2-9-2.5-12.2-6.1-2.2-2.4-3.4-2.9-7.1-2.9-2.5 0-4.5-.5-4.5-1 0-.6 2-1 4.4-1 4.8 0 6.9-1.6 6.4-5.1-.2-1.8.8-2.9 4.7-5.2 4.5-2.6 5.3-2.8 8-1.7 7 2.8 14.7 3.8 17.2 2.2 1-.6.8-1.8-.8-4.9-2-4.1-2-4.3-.2-6.7 2.3-3.3 2.9-3.4 14.8-4.1 13-.7 14.8-1.1 17.5-4.1 1.3-1.3 3.2-2.4 4.2-2.4 1.1 0 3.1-.6 4.6-1.3 1.6-.8 4.5-1.2 7-.9 3.6.3 4.7 1 6.3 3.6 1 1.7 1.9 4.6 1.9 6.4 0 4.2 4.4 8.7 10 10.2 2.2.6 4.2 1.5 4.5 2 .4.6 2.2 1.7 4.1 2.5 1.9.8 3.4 1.8 3.4 2.4 0 .5 1.2 1.4 2.8 2 3.4 1.5 6.7 3.4 8.9 5.3 1 .8 3.3 2 5.1 2.8 1.7.7 3.2 1.6 3.2 2.1s1.4.9 3.1.9h3.1l-3.4-4.8c-1.9-2.6-4.8-5.3-6.4-6.1-1.7-.7-3.9-2.6-4.8-4.2-.9-1.5-3.1-3.8-4.9-5.1-5.8-4.1-15.7-16-15.7-18.8 0-1.8-12.2-12.9-14.2-13-1 0-1.8-.5-1.8-1 0-.6-.4-1-1-1-.5 0-1 .7-1 1.6 0 .8-1.7 3-3.7 4.9l-3.7 3.4-1.7-2.8c-3.8-6.3-15-14.1-20.2-14.1-2.8 0-4.3-1.4-5.2-5.1-.6-2.3-1.1-2.6-5.2-2.5-3.7.1-4.9-.4-6.9-2.7-2.1-2.5-2.2-3-.9-4.3 1.3-1.4 1.1-2-2.2-6-2.9-3.4-4.7-4.6-7.6-5.1-2.1-.3-5.4-1.6-7.3-2.9-1.9-1.3-3.8-2.4-4.2-2.4-.4 0-2.5-.9-4.7-2s-4.5-2-5.1-2c-.7 0-4-1.6-7.4-3.5-3.4-1.9-7.1-3.5-8.1-3.5-3 0-8.2-2.4-11.2-5.2-3-2.8-3.4-3.8-1.3-3.8 1.6 0 2.6-2.1 2.6-5.4 0-1.7-1.1-2.8-4.2-4.2-2.8-1.3-5.6-3.8-8.6-7.9-2.4-3.3-5.4-6.5-6.6-7.2-1.2-.6-3.9-2.8-6.1-4.7-2.1-2-4.2-3.6-4.5-3.6-.4 0-1.6-1.8-2.9-4-2.1-3.9-2.4-4-7.4-3.8-2.8 0-5.3-.4-5.5-1-.6-2-4.7-6-6.8-6.6-1.1-.3-3.3-1.9-4.8-3.5-2.7-2.8-2.7-3.2-3.1-16.7-.2-7.7-.4-14.2-.4-14.7-.1-.4-1.7-1.5-3.6-2.4-1.9-.9-3.5-2.1-3.5-2.7 0-1.9 3.9-7.6 5.2-7.7.7-.1 2.2-.2 3.3-.3 1.5-.1 2.2-1.1 2.9-4.1.5-2.2 1.5-5.4 2.2-7.2.8-1.7 1.4-3.9 1.4-5 0-1 .9-3.2 2-4.8 1.1-1.7 2-4.1 2-5.4 0-3.1 2.1-9.1 3.2-9.1.4 0 .8-.9.8-1.9 0-4.6 5.7-6 8.8-2.3 1.8 2.3 1.5 8-.7 11.6-1 1.7-2.1 5.1-2.4 7.6-.3 2.5-1.2 5.8-2 7.5-.8 1.6-1.8 4.7-2.1 6.8-.6 3.2-.3 4.1 1.8 6.1 2.2 1.9 3.3 2.2 7.4 1.8 4.4-.4 5.2-.1 8.7 2.9 3.6 3.2 3.7 3.5 3.1 8.3-.3 2.7-1 5.4-1.6 6-.5.5-1 2.3-1 3.8s-.4 2.8-.9 2.8c-3.4 0-5.6 7.5-2.6 8.6.8.4 1.5 1.4 1.5 2.4s.7 2.5 1.5 3.3c1.6 1.7 1 2.8-1.2 2-3.7-1.4-4.4 5.8-.9 10.1 3.3 3.9 6.6 2.9 6.6-2 0-4.3 1.5-7.4 3.6-7.4.9 0 4 2.5 6.9 5.5 3.7 3.9 6 5.5 7.8 5.5 2.4 0 2.5-.2 1.7-3.1-.5-1.7-2-4.5-3.3-6.3-1.4-1.7-2.8-5-3.1-7.3-.7-4.1-2.5-5.6-8-6.5-1.4-.2-2.3-1.8-3.3-5.8-1.2-4.7-1.2-7.2-.1-14.7.1-.5.8-1.4 1.6-2.2.9-1 1.2-2.6.9-4.8-.5-2.8-.2-3.6 2.1-5.1 1.5-.9 3.2-2.3 3.7-3 .9-1.1 1.4-.9 2.9.7 1.1 1.2 2.6 2.1 3.5 2.1 2.6 0 6.1 2.9 6.1 5.1 0 1.1 1 2.3 2.4 2.9 1.3.5 3.8 3.1 5.6 5.9 2.7 4.2 4 5.2 6.9 5.6 2 .4 4.4 1 5.3 1.5 1.3.7 1.8.5 2.3-1 .3-1.1.4-2.4.1-2.9-.9-1.4 2.2-7.9 4.2-9 1.2-.6 4.6-.7 8.8-.3 6.5.8 7.2 1.1 11.6 5.5 6.5 6.6 9.7 6.2 14.4-1.8 2.2-3.8 3.1-4.5 5.7-4.5 4.6 0 5.6 1 6.6 6.4.8 4.6 4.3 9.6 6.6 9.6.7 0 1.9 1.9 2.8 4.1 1.5 3.9 1.9 4.1 4.7 3.6 1.6-.4 4.2-.2 5.8.4 1.5.6 5.2 1.1 8.2 1 3.9-.1 6.4.5 8.5 1.9 1.7 1.1 3.8 2 4.8 2 2.4 0 3.6-3.8 2.5-7.5-.5-1.6-1.3-6.8-1.8-11.5-.4-4.7-1.5-9.9-2.4-11.5-.9-1.7-1.6-3.9-1.6-5s-.6-2.9-1.4-4c-.7-1.1-1.6-3.4-2-5-.4-1.7-1.7-4-2.8-5.2-1.6-1.7-1.9-3.2-1.6-6.7.2-2.7-.1-4.6-.7-4.6-1.1 0 1.6-2 2.7-2 1.9 0 7.6 6.4 10.2 11.4 1.6 3.1 3.3 5.6 3.7 5.6.4 0 1.1 2.1 1.5 4.7.3 2.7 1.5 6.7 2.5 9 1.1 2.3 2.3 6.8 2.9 10 .5 3.2 1.4 8 1.9 10.8.5 2.7 1 8.7 1 13.1.1 10.6.9 14.2 3.2 14.9 1.1.4 1.9 1.2 1.9 1.8 0 .7 1 1.7 2.1 2.2 1.2.6 3.1 2.6 4.3 4.6 4.1 6.9 6.2 9.5 17 20.4 10.8 10.9 12.5 13.4 15.3 22.8.8 2.6 2.5 6.4 3.8 8.4 2 2.9 2.5 4.8 2.5 9.9 0 5.3.3 6.5 2.2 7.8 2.4 1.7 2.6 4.4 1.3 15.3-.9 7-.1 11.3 2 11.3 2.6 0 1.3 5.2-1.7 6.9-3.2 1.9-3.5 2.6-1 2.9 4.4.5 5.4 1.1 9.7 5.7 2.5 2.7 4.5 5.3 4.5 5.8 0 .4-.6 2.3-1.4 4.2-.8 1.8-1.2 4.3-.9 5.4.9 3.4-1.5 8.5-5.2 10.8-1.9 1.3-3.7 2.3-4 2.3-.3 0-1.8 1.1-3.3 2.5-1.5 1.4-3.4 2.5-4.3 2.5-1.3 0-1.8 1.3-2.3 5.3-.8 6.3-.1 8.7 2.5 8.7 2.4 0 3.1 1.7 2.7 6.6l-.3 3.9-1.7-3.1c-2.1-3.8-6-4.9-7.7-2.2-.9 1.5-.8 2 .3 2.4.8.3 2.2 2.3 3 4.5.9 2.1 2 3.9 2.4 3.9.5 0 1.6 1.7 2.5 3.8 1.6 3.7 2.5 5.3 5.9 10.4 1 1.5 1.8 3.3 1.8 3.9 0 .7 1.1 2.7 2.5 4.5 1.4 1.8 2.5 3.7 2.5 4.3 0 .6.5 1.1 1 1.1.6 0 1.5 1.1 2 2.5.5 1.3 2.1 3.8 3.6 5.4 6 6.8 16.4 23.4 16.4 26.4 0 .7 1.1 3.4 2.5 6.2 1.3 2.7 2.5 6 2.5 7.3 0 1.3.9 4.2 1.9 6.5 1 2.3 2.1 5.1 2.3 6.2.3 1.6 1.2 2 4.8 2.1 2.5.1 5.7.2 7.2.3 4 .2 8.4 4.5 11.8 11.6 3.4 7.2 3.7 10 1.3 12.7-1.6 1.8-1.6 2 .3 3.8 1 1 3.7 2.5 5.9 3.2 3.4 1.1 4 1.8 4.3 4.3.4 4.9-1 6-7.5 5.8-7.7-.3-15.6 3-14.7 6.1 1.7 5.5 4.9 5.9 11.2 1.7 3.6-2.5 4.7-2.8 7.4-2.1 1.7.5 3.1 1.1 3.2 1.2.1.2 2 2.5 4.2 5.3 2.2 2.7 4.8 6.1 5.7 7.5 7 10.1 11.6 17.4 13.7 21.8l2.5 5.1 6 .2c7.5.3 11.9.4 38.2.7l21.2.2 3 3.2c2.4 2.6 2.8 3.6 2 5.5-.5 1.4-.9 3.1-.9 3.9 0 2.3 4.3 1.3 4.6-1 .2-1.1.5-2.9.8-4.1 1.2-4.9 22.2-8.3 29.7-4.9 4.5 2 4.7 2.6 1.9 5.4-2.3 2.3-2.7 2.4-8.6.9-5.5-1.4-9.1-.1-9.6 3.3-.2 1.9-1 2.3-4.5 2.6-2.4.2-4.4.9-4.7 1.7-.6 1.7-.1 2 4.2 3 2.8.6 3.4.4 3.9-1.3.7-2.7 3.2-3.6 4-1.4.9 2.5 2.4 3.2 4.5 2.1 1.1-.6 1.5-1.5 1.1-2.6-.4-1.1-.3-1.4.5-.9.8.5 1 .2.6-.8-.6-1.6.7-2.2 2-.9.4.4 1.9.9 3.3 1.1 1.5.2 4.6 1.5 7 2.9 4 2.3 4.5 2.4 6.6 1 1.9-1.3 2.8-1.3 7.2 0 2.8.9 6.4 3 8.4 4.9 4.1 3.9 6 4.2 8.4 1.4 1.8-2.2 6.8-2.7 11-1.1 2.6 1 9.7-.5 9.7-2.1 0-.4-2.2-.8-4.9-.8-5.8 0-8.1-.7-8.1-2.5 0-2 2.4-2.5 11.1-2.5 7.7 0 8.1.1 11 3.2 1.6 1.8 2.9 4.2 2.9 5.4 0 2.1.5 2.2 11.3 2.7 9.9.5 14.5.5 23.8-.1 1.7-.1 3-1.1 3.7-2.7.7-1.4 2.3-3.1 3.8-3.7 2.8-1.3 5.4-6.4 13.6-26.8 51.8-128.9 47-273.8-13.3-398.8-33.4-69.4-81.1-128.4-142.7-176.7-12.3-9.6-13.2-9.7-13.2-2.3 0 3.9 1.1 4.7 3.9 2.9 1-.7 2-.2 3.3 1.5 1.1 1.3 2.8 2.4 3.9 2.4s2.3.8 2.6 1.7c.4 1 1.1 2.1 1.6 2.4.4.3-.6 1.5-2.5 2.5-2.7 1.6-4.4 1.8-9.8 1.3-3.6-.4-6.9-.3-7.4.2-1.1 1-3.7 13-3.1 14 .3.4-.6 1-1.9 1.3-1.6.4-2.5 1.5-3 3.7-1 5.3-.7 7.9 1 7.9.9 0 1.4.7 1.2 1.6-.4 2-9.8 2.7-9.8.8 0-.6.9-1.4 2-1.7 1.7-.4 1.9-1 1.2-3.9-1.2-5.5-.9-17.1.6-17.6s1.6-6.2.1-6.2c-.6 0-2.4-1.1-4.1-2.5-1.6-1.4-3.6-2.5-4.4-2.5-1.8 0-1.9-6.3-.1-7.8.7-.6 3.7-1.2 6.7-1.4l5.4-.3.9-4.4c.6-2.9.5-5.8-.3-8.7-1.2-4-1.9-4.6-14.9-12.7-23.9-14.8-45.3-26.3-47.1-25.2-1.4.9-1.1 6.3.5 10.9.8 2.2 1.2 4.3.9 4.7-.2.4.1.9.7 1.1 1.3.4.3 4.8-1.1 4.8-.5 0-2.2-1.1-3.9-2.5l-3-2.6-.7 3.6c-.3 1.9-.4 4.8-.2 6.5.3 1.9 0 3.1-.9 3.5-1 .3-1.3 1.7-1.1 4.2.3 3.5.6 3.8 3.6 4.1 4 .4 6.7 4.2 7.6 10.7.4 2.4 1.3 4.6 2.1 4.9 2 .7 1.9 4.6 0 4.6-.9 0-1.8 1.2-2.1 3-.4 1.6-1 3-1.5 3s-.9.7-.9 1.5c0 1.6-4.9 4.5-7.7 4.5-1 0-2.9.7-4.1 1.6-1.9 1.3-2.3 2.4-2.1 6 .3 3.6-.1 4.7-1.9 6-1.2.8-2.2 2.5-2.2 3.7 0 1.5-.3 1.8-.8.9-.5-.7-.6-2.6-.4-4.3.3-1.9.8-2.6 1.2-1.9.5.8.9.7 1.4-.5 1.4-3.8.7-4.5-4.2-4.5-5.8 0-7.2-1.8-7.9-10-.4-4.1-.1-6.5 1.1-8.8.9-1.7 1.6-4.2 1.6-5.6 0-1.4.9-3.1 2-3.9 3.6-2.5 4.3-6.4 2.9-16.5l-1.2-9.4 2.7-2.4c1.4-1.4 2.6-3.5 2.7-4.7.5-9.5 2.2-15.3 5-16.7 1-.6 1.9-2 1.9-3.1 0-1.6-1.9-2.9-8.2-5.8-4.6-2.1-9.4-4.2-10.8-4.5-1.4-.4-3.8-1.4-5.5-2.1-1.6-.7-5.4-2.3-8.2-3.4-4.9-1.9-5.2-1.9-4.2-.3.6 1 2.3 2.3 3.8 3 1.4.6 3.1 2.2 3.6 3.4.9 2 1.8 2.3 6.5 2.4 7.4.2 7.2.2 6 2.4-.8 1.5-2.3 2-6.7 2.2-6.1.3-6.4.6-7.9 9.3-.3 1.6-2.3 5.1-4.4 7.6-2.2 2.6-4.1 5.2-4.2 5.9-.2.7-1.8 2.8-3.6 4.6-2.9 3.1-3.2 3.7-2.6 7.6.4 2.4 1.2 4.6 1.8 5 .7.5.7.8-.2.8-.7 0-1.8 1.2-2.5 2.7-1.8 4.2-6.3 10.8-9.2 13.7-1.4 1.4-2.5 3.2-2.5 4.1 0 .8-.6 1.5-1.4 1.5-1.3 0-2.8 4.5-1.8 5.5 1.8 1.7 11.3-1.5 14.9-5.1.7-.7 2.2-1.6 3.4-1.9 3.1-1 6.1-8.9 5.3-14-.5-3.3-.2-4.3 1-4.8.9-.4 1.6-1.8 1.6-3.3 0-1.7.6-2.8 1.9-3.1 1.6-.4 1.8-.9 1-3-1.1-3-1.2-7.3-.1-7.3.5 0 1.4-1.6 2.2-3.5 2.3-5.8 2.8-5 4.6 7 .4 2.7.8 5.3 1 5.7.1.5.2 1.1.3 1.4.3 1.7 3.1-2.1 3.1-4.2 0-1.3.5-2.4 1-2.4.6 0 1 2.5 1 5.5s.4 5.5.9 5.5c2.3 0 1.8 3.5-1.1 8.3-1.8 2.8-3.6 5.5-4.1 5.8-2 1.4-5 11.7-5.1 17.1-.1 5-.7 6.7-1.9 5.5-.1-.1-1.3.8-2.7 2-1.3 1.3-2.7 2.3-3.1 2.3-2.2 0-5.8-2.5-6.8-4.7l-1.1-2.4-3.7 2.8c-3.2 2.5-4.5 2.8-10.8 2.8-4.3 0-7.8-.5-8.7-1.2-.8-.7-1.8-.9-2.3-.5-.4.4-.5-.9-.1-2.9.6-3.7-1.5-9.6-3.8-10.5-2.2-.8-1.7-5.5 1-8.6 1.6-2 2.4-4 2.2-5.6-.4-3.7-2.3-3.7-4.1 0-.9 1.8-2.9 4.8-4.6 6.7-1.7 1.9-3.1 4.3-3.1 5.2 0 1-.9 2.3-2 2.9-1.3.7-2 2.1-2 4 0 3.5-2.3 5.8-7.6 7.6-3.1 1.1-4.2 1-6.4-.1-3.3-1.7-4-3.3-4-9.2v-4.6l-4.6.7c-2.6.3-5.2 1-5.8 1.5-1.9 1.6-4.3-1.1-3.6-3.9.5-2 1.5-2.6 5-3.3 2.5-.5 4.8-1.4 5.2-2.1.5-.6.5-3.6.2-6.7-.6-4.9-.3-6 1.5-8 1.2-1.3 2.8-3.1 3.6-3.9.9-1.1 1.1-2.7.6-5.6-.9-4.8.3-6.9 5.7-10 1.7-1 3.2-2.3 3.2-2.9.1-.5.9-2.1 2-3.3 1.6-2 2.2-2.2 3.3-1 .7.7 1.6 2.1 2 3 .7 1.9 4.2 2.4 5.2.8.3-.6-.3-2.3-1.4-3.9-1.2-1.6-2.1-3.6-2.1-4.4 0-2.1-2.8-4.7-5-4.7-1.2 0-2.1 1-2.5 3-.5 2.2-1.6 3.4-4.1 4.5-1.9.8-5.5 3.5-8 6s-4.9 4.5-5.3 4.5c-.5 0-1.2-1.4-1.7-3.1-.9-3.3-3.8-5.9-5-4.7-1.1 1.2-2.3 8.9-2.4 15.4 0 4.2-.5 6.5-1.5 7.4-2.9 2.4-1.7 3.9 3.3 4.2 4.1.3 4.7.6 4.4 2.3-.2 1.1-1.2 2.9-2.3 4.1-1 1.1-1.9 2.3-1.9 2.6 0 .4-.4 1.8-.9 3.2-.9 2.1-1.4 2.3-3.8 1.7-2.6-.7-2.8-1.1-2.8-6.2 0-5.4 0-5.4-2.9-5.2-3.1.2-5.9-1.3-5.1-2.8.3-.4 1.3-.5 2.1-.2 1.2.4 1.5.1 1.2-1.3-.2-1.1-1.1-1.8-2.1-1.8-1.1.1-1.7-.6-1.7-2.1 0-2.3 2.4-4 4.1-2.9.5.3.9-.7.9-2.2 0-2.3-.3-2.6-2.7-2.1-3.6.7-5.3-.1-6.4-3-.7-1.8-.5-2.8.6-3.9 1.3-1.3 1.7-1.2 3.3.4 1 1 2.6 2.1 3.5 2.5 1.5.5 1.7-.1 1.7-4.3 0-4.7-.2-5-2.6-5-3.1 0-2.8-2.3.4-2.8 1.6-.2 2.2-1 2.2-2.8 0-1.4.5-3.5 1.2-4.7 1.1-2.1 1.1-2.1 1.9-.2.4 1.1.8 3.2.8 4.7.1 1.6.4 2.8.9 2.8 1.8-.1 3.2-1.8 3.2-4.1 0-1.3.3-4.1.6-6.2l.6-3.7H577c-3.3 0-4.8-.6-7.1-3-1.7-1.7-5.3-3.6-8.2-4.5-3.2-.9-6-2.5-7.1-4-2.1-2.8-4.9-3.1-8.6-1-1.4.8-3.5 1.4-4.7 1.5-1.2 0-2.8.7-3.7 1.5-2.2 2.3-2.6 1.9-2.6-2.5 0-2.2.5-4 1-4 1.8 0 1.1-1.5-1.2-2.5-3.3-1.5-8 1-7.6 3.9.2 1.1 1.3 2.5 2.6 3.1 3.3 1.4 2.7 3.2-1.8 5.5-4.9 2.5-7.2 2.5-9.5 0-1-1.1-2.3-2-3-2-.7 0-1.2-1.7-1.2-4.3 0-2.4-.3-4.9-.7-5.5-.9-1.5-6.2-1.6-7.1-.2-.3.5-1.9 1-3.6 1-1.9 0-3.7 1-5.6 3-2.5 2.8-5.2 3.8-6.6 2.4-.3-.4.1-2.4 1-4.7 1.8-4.4 2.3-3.6-5.1-9.2-1.1-.8-1.6-2-1.3-2.9.9-2.3 3.7-2 3.7.4 0 1.6.7 2 3 2 2.4 0 3.5-.8 5.6-4.1 1.4-2.3 3.1-6.3 3.8-9l1.3-4.9h-2.9c-1.6 0-3.1.6-3.4 1.5-.4.8-1.2 1.5-2 1.5s-1.1-.6-.8-1.5c.5-1.3-.6-1.5-6.7-1.5-4.1 0-8 .4-8.8.9zm14 8.4c-.8.8-1.1.4-1.1-1.4 0-3.3 1.4-4.7 1.8-1.9.2 1.2-.1 2.7-.7 3.3zM435 11c0 .7-3.3 2-5.2 2-1.3 0-.9-2.8.5-3.3 1.6-.5 4.7.3 4.7 1.3zm41 1.1c0 1.8-.2 1.9-1.5.9-1.5-1.2-1.2-3 .6-3 .5 0 .9 1 .9 2.1zm-78.6 6.6c.6 1.5.8 1.5 1.7.3.8-1.3 1-1.3 1.9 0 1.5 2.3.7 3.4-3.4 4.2-3.3.7-4.2.5-6-1.5-2.8-3.1-2.4-4.2 1.8-4.5 2.4-.2 3.6.2 4 1.5zM476 29.5c2.5 1.3 2.9 1.9 2.3 4.5-.4 2.1 0 3.6 1.1 4.9 1.6 1.8 1.3 5-.5 5.2-.5.1-1.5.2-2.1.3-.9.1-1.5 2.6-1.9 7.1-.5 7.1-1.5 10.5-2.9 10.5-.4 0-1 1.4-1.4 3.2-.3 1.7-1.3 3.9-2.1 4.8-1.2 1.3-1.2 2.7-.1 9 1.5 8.8 3.2 9.8 5.6 3 1.1-3 2.6-5.2 5-6.7 1.9-1.2 4.2-2.9 5-3.6.8-.8 2.5-1.7 3.6-2.1 1.2-.4 2.4-1.6 2.7-2.6.9-3.6 13.7-2.3 13.7 1.4 0 .7.8 3.7 1.8 6.7 1.8 5.6 1.4 11.9-.9 11.9-.5 0-.9 1.5-.7 3.3.1 1.8-.2 3.8-.6 4.5-.4.7-.9 2.4-1.2 3.7-.7 4.1 3.8 3.3 9-1.5 3.8-3.5 4.5-4.8 5.2-9.8.4-3.1.7-6.7.6-7.8-.3-2.7 4.5-12.3 6.4-13.1.8-.3 1.4-1.6 1.4-3 0-1.3 1.1-3.4 2.5-4.7 1.4-1.3 2.5-2.7 2.5-3.3 0-3 8.1-14.3 10.3-14.3.5 0 2.2-1.1 3.9-2.5 2.2-1.9 4.1-2.5 7.5-2.5h4.6l-.6 7.4c-.8 8.5-1.4 10.6-3.3 10.6-1 0-1.2 1-.8 4.4.6 3.9.4 4.6-2.1 6.8-1.5 1.2-3.2 2.7-3.7 3.3-1.6 1.8-7.8 11.9-8.4 13.7-.3 1.1-1.5 1.8-3 1.8-2.1 0-2.4.5-2.5 3.5-.1 1.9-.2 4.1-.3 4.7-.1.7 1 2.1 2.3 3 2.2 1.5 2.3 1.8.8 2.4-1.1.4-2.3-.2-3.5-1.7-1.9-2.2-1.9-2.2-4.5-.3-3.5 2.6-3.6 7.6-.1 13.8 2.4 4.2 3 4.7 5.8 4.4 2.7-.3 3.1-.7 3.1-3.2 0-4 1.8-4.3 3.2-.6l1.2 3.1 5.4-3.1c6.9-3.8 9.9-3.9 11.3-.2 1.5 3.9-.1 8-3.4 8.8-1.5.4-4.3 1.5-6.2 2.4-13.5 6.9-25.9 5-30-4.6-2.1-4.8-4.7-5.8-6.8-2.4-.9 1.4-2.3 2-5 2-5.7 0-7.6-1.9-7.7-7.6-.1-2.7-.6-4.9-1.3-5.2-.7-.2-1.2.1-1.2.7 0 .7-1.6 2.7-3.5 4.6-3 3.1-4.1 3.5-8.4 3.5-5.9 0-8.5-2.2-10.2-8.3-.8-3.1-1.4-3.8-3.2-3.5-1.5.2-2.3 1.1-2.5 3-.5 4-2.2 4.8-10.8 5.2-8.2.4-12.4-.7-12.4-3.2 0-.8-.9-3-2.1-4.9-2.8-4.6-2.8-12.4 0-15.2 1.4-1.4 2.1-3.4 2.1-6 0-3.5.4-4.1 4.3-6.4 2.3-1.4 5.9-2.8 8-3.2l3.7-.7v-5.3c0-3.8.6-6 2.1-7.9 2.1-2.6 2-3.5-.3-6.7-.9-1.3-.8-2 .5-3.3.8-.9 2.1-4.1 2.7-7.1.6-3 1.5-5.5 1.9-5.5.4 0 1.3-1.1 1.9-2.5 1.3-2.9 3.1-3.1 7.2-1zm35.4 6.8c.7 1.1.7 2.5 0 4.4-1.5 4-.7 5.3 3.1 5.3 1.9 0 3.7.4 4 1 .4.6-1.5 1-4.9 1-5 0-5.6-.2-5.6-2.1 0-1.8-.3-1.9-1.5-.9-1.1.9-2.2.9-5 0-2.9-.9-3.5-1.6-3.3-3.3.2-1.8.9-2.1 3.6-1.9 2.7.3 3.5-.2 5-2.7 1.8-3.3 2.9-3.5 4.6-.8zM398 38.4c0 3.1-3.4 2.9-3.8-.2-.3-1.7.2-2.2 1.7-2.2 1.6 0 2.1.6 2.1 2.4zm-22.4 1.8c-.3 1.3-.6 2.8-.6 3.5 0 2.3-3.5 1.8-5.8-.9-3-3.5-2.1-4.8 3-4.8 3.7 0 4 .2 3.4 2.2zM567.2 50c-.2 1.9-.7 3.8-1 4.2-1.2 1.1-6.2-.4-6.2-1.9 0-2.7 3.2-6.4 5.4-6.1 1.8.3 2 .9 1.8 3.8zm-266.7 2.7c-.3 5-.3 5-2 5.7-1.9.7-4.5-.3-4.5-1.7 0-.8 5.7-7.4 6.6-7.7.1 0 0 1.7-.1 3.7zm91.5-1.8c0 1.1-.3 2.7-.6 3.6-.6 1.5-.8 1.5-2.5-.1-1.4-1.3-1.6-2.1-.8-3.5 1.3-2.5 3.9-2.4 3.9 0zm286.4-1.3c1.3.5 1.6 2.2 1.6 8.6 0 5-.4 7.7-1 7.3-.5-.3-1-2.1-1-3.9 0-2.2-.8-3.9-2.5-5.4-4.7-4.1-2.6-8.7 2.9-6.6zM314 52c0 2.1-3.3 2.8-5.9 1.1-2.1-1.3-.4-3.1 3-3.1 2.2 0 2.9.5 2.9 2zm12 .1c0 .5-.4.9-1 .9-.5 0-1-.7-1-1.6 0-.8.5-1.2 1-.9.6.3 1 1 1 1.6zm45.5-1.2c.7 1.2-1.2 2.4-2.5 1.6-1.1-.7-.4-2.5 1-2.5.5 0 1.1.4 1.5.9zm7.3 3.2c-.4 3-2.3 2.7-2.3-.4 0-3 .5-4.1 1.7-2.9.5.5.8 2 .6 3.3zm22.2.3c-1.8 2.3-3 2-3-.7 0-3.2 1.1-4 2.9-2.3 1.2 1.2 1.2 1.8.1 3zm18.8-2.6c.2.7-.6 1.2-1.7 1.2-2.1 0-2.7-1.1-1.4-2.4.9-.9 2.6-.2 3.1 1.2zm12.7 1.2c0 1.3-.6 2.5-1.2 2.7-.9.3-1.3-.6-1.3-2.7s.4-3 1.3-2.8c.6.3 1.2 1.5 1.2 2.8zm8-1.1c.3 1.1 1.5 2.3 2.6 2.6 2.8.9 2.3 2.5-.8 2.5-4.5 0-7.1-3.1-4.9-5.7 1.6-1.8 2.4-1.6 3.1.6zM502 53c0 1.6-.7 3.3-1.6 3.8-.8.5-2.1 2-2.7 3.3-1.6 3.2-6.7 4-6.7 1 0-1.2 1.1-2.5 2.8-3.3 1.5-.8 2.7-2.2 2.7-3.3.1-2.9 1.3-4.5 3.6-4.5 1.4 0 1.9.7 1.9 3zm186.6-.5c.8 3.2-.4 9.7-1.7 9-1.2-.8-1.2-11.5.1-11.5.5 0 1.2 1.1 1.6 2.5zM413 52c-1.9 1.3-3 1.3-3 0 0-.6 1-1 2.3-1 1.8 0 1.9.2.7 1zm39.3 1.5c-.7 2.1-1.3 1.9-1.3-.6 0-1.1.4-1.8 1-1.4.5.3.7 1.2.3 2zm39.2-1.5c-.3.5-1.3 1-2.1 1s-1.4-.5-1.4-1c0-.6.9-1 2.1-1 1.1 0 1.7.4 1.4 1zm33.5 2.5c0 2.6-.3 3.3-1.5 2.9-1.6-.6-1.9-2.2-.9-4.8 1.1-2.8 2.4-1.7 2.4 1.9zm-243-.6c.5 1.1 1.2 3.8 1.4 6 .3 3.2-.1 4.4-1.9 6.1-3.2 3-2.2 5.4 1.9 4.5 6.8-1.4 10.6-1.7 10.6-.8 0 .6 1.1 2.2 2.5 3.7s2.3 3.1 2 3.6c-.9 1.5-7.7 3-13.6 3h-5.7l-1.1 7.7c-.7 4.3-1.5 9.9-1.7 12.5-.4 3.5-1.1 4.7-2.5 5.1-3.5.9-5.4-3.6-5.5-13.4-.1-9.9-1.2-11.9-6.4-11.9-1.8 0-4.4-.7-6-1.6-2.5-1.6-2.7-1.9-1.8-5.3.6-2 1-5.1.9-6.9-.1-3.5.5-3.8 3.3-1.7 1.1.8 3 1.5 4.2 1.5 1.2 0 2.7.7 3.4 1.5 1.7 2.1 2.7 1.1 3.5-3.5.5-2.9 1.6-4.7 3.6-6.2 1.6-1.2 2.9-2.7 2.9-3.4 0-2.7 4.6-3.1 6-.5zm74 5.7c0 5.3 1 6.1 4 2.9 1.4-1.5 3.1-2.3 4.4-2 1.2.2 2.4.4 2.8.4.4.1 1.1 1.9 1.4 4.1.5 3.3 1.1 4 2.9 4 2.7 0 7.2-3.3 8-6 .7-2.3 7.1-3.8 8.8-2.1 1.3 1.3 1.8 37.2.5 40.9-.4 1.2-1.6 2.5-2.5 2.9-1 .4-2.1 1-2.4 1.5-.8 1.3-7.9-5.2-7.9-7.3 0-.9.7-3 1.5-4.5 1.5-2.9 2.2-19.4.9-20.7-1.2-1.2-4.4 1.9-4.4 4.3 0 1.4-1.1 3.3-2.5 4.5-1.7 1.4-2.8 3.6-3.5 7.4-1.1 5.7-3.2 9.8-5.4 10.7-.8.3-3-.2-5-1-4.1-1.7-4.7-4.5-2.1-9.7.9-1.6 1.3-3.4.9-4-.4-.6-.2-1.4.4-1.8 1.2-.7 1.5-2.4 1.2-7.6-.1-2.3-.4-3.2-.7-2-.3 1.1-1.3 2.9-2.3 4-1.8 2-2.7 5.4-3.7 13.5-.3 2.5-.9 4.9-1.4 5.4-.5.6-.9 1.9-.9 3.1 0 1.1-.7 3.1-1.6 4.3-2.9 4.1-9.4 1.1-9.4-4.3 0-1.1.7-4.5 1.6-7.5.8-3 1.9-7.7 2.4-10.4.5-2.8 1.6-5.4 2.5-5.8 1.9-1.1 2.2-14.4.3-15-.7-.3-.9-1.4-.4-3.1.4-2 1.3-2.7 2.9-2.7 1.3 0 3.2-.6 4.3-1.4 2.8-2.1 4.4-.2 4.4 5zm6.3-2.3c-.3.5-.9.3-1.4-.4-.4-.7-.5-1.7-.2-2.2.3-.5.9-.3 1.4.4.4.7.5 1.7.2 2.2zM484 56c0 .5-1.1 1-2.5 1s-2.5-.5-2.5-1c0-.6 1.1-1 2.5-1s2.5.4 2.5 1zm-162.2 3.3c.4 3.3-1.3 5.7-3.8 5.7-2.3 0-3.1-2.2-2.3-6.1.5-2.5 1-3 3.2-2.7 2 .2 2.7.9 2.9 3.1zm102.7.7c.3.5 1.7 1 3.1 1 4.4 0 6.6 1.8 5.9 4.8-.3 1.6 0 3.5.8 4.6 1.2 1.6 1.1 2.8-.2 8.1-.9 3.5-2.2 7-2.9 7.8-1.8 2.1-5.2 11.7-5.2 14.4 0 1.3-.6 2.3-1.4 2.3-.7 0-2 .7-2.7 1.7-3.6 4.2-9.8 4.6-13.9.8-.8-.8-2.8-2.5-4.5-3.9-2.6-2.1-3-3.1-3.2-8.2-.1-3.3-.5-9.3-.9-13.4-.6-8.2-1-7.1 7.4-18.2 2.8-3.6 4-4.4 7.5-4.8 4.1-.6 8.9.9 10.2 3zm31.5-3c0 .5-.2 1-.4 1-.3 0-.8-.5-1.1-1-.3-.6-.1-1 .4-1 .6 0 1.1.4 1.1 1zm106.6 2.2c.3.3.1 2.1-.3 3.9l-.9 3.2-3.4-3.1c-2.8-2.5-3.2-3.4-2.1-4.1 1.5-.9 5.7-.9 6.7.1zm-45.9 4.5c-.3 1-.5.4-.5-1.2 0-1.7.2-2.4.5-1.8.2.7.2 2.1 0 3zm-69.1 2c-1 1-1.9-.5-1-1.8.6-1.1.8-1.1 1.2 0 .2.7.1 1.5-.2 1.8zm37.2-1.5c-.6 1.8-2.8 2.1-2.8.4 0-.9.7-1.6 1.6-1.6.9 0 1.4.5 1.2 1.2zm106.6 5.7c1 1.5-.6 10.2-2.1 11.7-1.7 1.6-2.3 1.7-4.2.5-1.3-.8-1.3-1.6-.1-5.3 1.9-6.1 4.9-9.4 6.4-6.9zm-342.9 2c0 .8-.4 1.6-1 1.8-1.6.5-3.8-1.4-3-2.6.9-1.6 4-.9 4 .8zm307 1.9c0 2.9.4 3.4 3.7 4.3 2 .5 4 1.4 4.3 1.8.8 1.4-.6 4.1-2.1 4.1-.8 0-1.4.4-1.4 1 0 .5.8 1 1.8 1 1.7 0 4.2 1.8 4.2 2.9 0 .4-2.3.4-5.1.2-5.2-.3-7.6 1-9.2 5.1-.3 1-1.3 1.8-2.2 1.8-.8 0-1.5.7-1.5 1.5s-.4 1.5-1 1.5c-.5 0-1-2-1-4.5s.5-4.5 1-4.5c.6 0 1-.6 1-1.4 0-.8 1-1.6 2.3-2 4.1-1 6.4-8.6 2.7-8.6-2.6 0-4.6-4.6-2.9-6.7.7-.8 2.2-1.3 3.3-1.1 1.6.2 2.1 1 2.1 3.6zm-42 1.2c.3.5.1 1-.4 1-.6 0-1.1-.5-1.1-1 0-.6.2-1 .4-1 .3 0 .8.4 1.1 1zM240 80.5c0 .8-.4 1.5-1 1.5-.5 0-1-.7-1-1.5s.5-1.5 1-1.5c.6 0 1 .7 1 1.5zm306.8-.3c-.6 1.8-2.8 2.1-2.8.4 0-.9.7-1.6 1.6-1.6.9 0 1.4.5 1.2 1.2zm192 3.5c2.6 2.6.7 5.8-4 6.9-3.8.8-4.3 1.2-4 3.4.1 1.4 2.3 4.5 5.1 7.2 6.4 6.1 10.1 11 9.7 12.8-1.4 7.6-2.1 9.1-5.5 12.4-6.2 6.1-20.7 8.3-21.3 3.4 0-.7-.2-2-.2-2.8-.2-1.9 5.9-6.4 10.4-7.6 5-1.4 4.9-3.6-.5-8.9-2.6-2.5-4.4-4.5-4.1-4.5.3 0-1-2.2-2.9-5-3.7-5.2-3.7-7.9-.1-10.9.9-.7 1.6-2.7 1.6-4.3 0-2.8.2-3 2.8-2.5 1.5.3 3.5 0 4.5-.7 2-1.5 6.5-.9 8.5 1.1zm9.7-.7c.3.6.4 1.8.1 2.8-.5 1.4-1.4 1.7-4.1 1.4-2.1-.3-3.5-1-3.5-1.8 0-2.6 6.2-4.6 7.5-2.4zm14.4.4c1 1.2.8 1.7-.7 2.5-2.5 1.3-4.9-.8-3-2.7 1.6-1.6 2.3-1.5 3.7.2zm-445.6 1.3c-.7.2-1.9.2-2.5 0-.7-.3-.2-.5 1.2-.5s1.9.2 1.3.5zm439.5 5.4c-.1 1.8-1 3.5-2.1 4.1-2.2 1.2-3.2.3-4.1-3.4-.5-2.4-.3-2.7 2.6-3.1 1.8-.2 3.4-.5 3.6-.5.1-.1.1 1.2 0 2.9zM742 91.4c0 .7 1 2 2.3 2.9 1.7 1.1 1.9 1.8 1.1 2.7-.7.7-2.1.9-3.3.5-1.6-.5-2.1-1.5-2.1-4.1 0-1.9.5-3.4 1-3.4.6 0 1 .6 1 1.4zM396 97c0 .5-.7 1-1.6 1-.8 0-1.2-.5-.9-1 .3-.6 1-1 1.6-1 .5 0 .9.4.9 1zm169.5 3c2.8 1.1 4.3 3.6 2.9 5-.5.5-3.5 1.2-6.7 1.6-5.3.6-5.7.5-5.7-1.4 0-1.1-.4-2.4-1-2.7-1.8-1.1-1-2.4 1.8-2.8 5-.7 6-.7 8.7.3zm-236.4 5.3c-.8.8-1.1.7-1.1-.4 0-2 1.3-3.4 1.8-1.9.3.7-.1 1.7-.7 2.3zm-75.6 4.7c-1.6 6.4-4 5-3-1.7.6-4.5.8-4.6 2.1-2.8.9 1.2 1.2 3 .9 4.5zm110.5-1c0 .5-.5 1.2-1.1 1.6-1.4.8-3.3-1.1-2.5-2.5.7-1.1 3.6-.4 3.6.9zm213 3.5c.7.8 3 1.8 5.1 2.1 3 .5 3.9 1.1 3.9 2.6 0 1.6-.6 1.9-4.7 1.6-4.1-.3-4.8 0-5.1 1.7-.8 5.2-1.3 6.5-2.7 6.5-.8 0-1.6-.6-1.7-1.3 0-.6-.2-1.7-.3-2.2-.2-.6-.3-2-.4-3.3-.1-1.2-.7-2.2-1.6-2.2-1.7 0-2-1.6-.5-2.5.6-.3 1-1.5 1-2.6 0-1.4.7-1.9 2.9-1.9 1.6 0 3.4.7 4.1 1.5zm-239 4c0 2.5-.4 4.5-1 4.5-.5 0-1-2-1-4.5s.5-4.5 1-4.5c.6 0 1 2 1 4.5zm283-3.2c0 .8-.7 1.4-1.5 1.4s-1.5-.6-1.5-1.4c0-.7.7-1.3 1.5-1.3s1.5.6 1.5 1.3zm-294 3.1c0 1.1-1.9 1.5-2.5.6-.3-.5.1-1 .9-1 .9 0 1.6.2 1.6.4zm39.4 1.1c-.7 1.7-.9 1.7-4.1.9-3.5-.9-2.7-2.4 1.2-2.4 2.6 0 3.3.3 2.9 1.5zm29.6-1c0 .2-1.2 1.2-2.6 2.1-2.2 1.5-2.7 1.5-3.5.3-1.5-2.4-1-2.9 2.6-2.9 1.9 0 3.5.2 3.5.5zm227.7 6.6c-1.6 2.6-2.7 2.4-2.7-.4 0-3 1-4 2.6-2.6 1 .8 1.1 1.5.1 3zM565 121c1.1.7.7 1-1.7 1-1.8 0-3.3-.5-3.3-1 0-1.3 3-1.3 5 0zm-55.5 1c-.3.5-1 1-1.6 1-.5 0-.9-.5-.9-1 0-.6.7-1 1.6-1 .8 0 1.2.4.9 1zm203.3 2.8c.3 1.6-.2 2.2-1.7 2.2-2.6 0-3.6-1.7-2-3.6 1.6-1.9 3.3-1.3 3.7 1.4zm-120.6-.6c2.3 1.9 3 4.8 1.4 5.4-2.1.8-5.6-1.4-5.6-3.5 0-3.2 1.6-3.9 4.2-1.9zm21.3 2.9c-.4.5.1.9 1 .9s1.4.4 1.1.9c-.8 1.2-6.2 2.2-8.1 1.4-1.4-.5-1.4-.8.2-2.3 3-2.8 7.3-3.5 5.8-.9zm-266 5.4c1.6 5.3 1.6 5.6-.3 9.7-1.1 2.4-2.3 5.5-2.6 7-.4 1.6-1.1 2.8-1.6 2.8-1.1 0-6 9.9-6 12.1 0 .8-1.1 3.3-2.5 5.7-2.9 5.1-2.1 5.8 4.9 4.8 2.7-.4 4.7-.3 5.1.4.4.7 1.3.5 2.7-.4 1.8-1.3 2.4-1.3 4.7.2 1.4.9 3.8 2.9 5.3 4.4 2.9 2.8 2.8 4.1-.1 9.5-2.8 5.1-5.1 11.2-5.1 13.2 0 3.6-1.9 6.1-4.6 6.1-2.9 0-3.3-.7-3.7-8-.2-3.5.1-5.9.9-6.5.7-.6 1.6-2.6 1.9-4.6.6-3.1.3-3.8-2-5.3-2.4-1.6-2.8-1.6-4.3-.2-1 .8-4.1 1.6-7.2 1.8l-5.5.3-1.4 5c-1.8 6.8-2.5 12.5-1.4 12.5.5 0 1.6-.9 2.6-2 2.1-2.5 4.3-1.7 5.6 2.2 1.6 4.5 1.6 4.5-3.6 7.8-4.6 2.9-9.5 3.8-12 2.2-2.3-1.4-3.1-5.7-2.2-10.7 1.5-7.8-.2-7.9-7.8-.2-6.7 6.8-6.8 6.8-11.8 6.5l-5-.3-.3-4.1c-.3-3.8 0-4.2 2.3-4.8 5.1-1.3 13.5-11.6 13.5-16.6 0-1 1.2-2.7 2.6-3.7 1.4-1 4.5-3.4 6.8-5.4 2.2-1.9 5.6-4.5 7.4-5.8 2.4-1.7 3.1-2.8 2.6-4.5-.3-1.4.4-3.5 2-5.9 1.4-2.1 2.9-5.5 3.2-7.7.4-2.2 1.3-4.5 2-5.1.8-.6 1.4-1.8 1.4-2.5 0-1.5 5.2-11.7 7.1-14.1 2.4-2.9 4.6-1.4 6.4 4.2zm172.8-3.9c2.4.7 2.1 2.4-.5 2.6-6.2.4-9.7-.9-8.3-3.2.6-1 3.5-.8 8.8.6zm159.8 1.7c-1.3 1.3-2.6.3-1.6-1.2.3-.6 1.1-.8 1.7-.5.6.4.6 1-.1 1.7zm-97.6 3.6c-.3.6-1.5 1.1-2.5 1.1-2.2 0-3.9-2.2-2.2-2.8.7-.2 1.2-1 1.2-1.8 0-1.1.5-1 2.1.5 1.2 1.1 1.8 2.4 1.4 3zm72.7-4c-1.4.9-6 .7-7-.3-.3-.3 1.5-.6 3.9-.6 2.8 0 3.9.3 3.1.9zm-88.6 2.2c1.6 2.7-6.1 4.8-9.1 2.4-1.7-1.3-1.8-1.6-.5-2.5 2-1.3 8.7-1.3 9.6.1zm79.7.6c-1.3 3.6-5.3 4.5-5.3 1.4 0-1.2.8-2.1 2.3-2.4 1.2-.2 2.5-.5 2.9-.6.4 0 .4.7.1 1.6zm-104.8.3c-.3.5-1.3 1-2.1 1s-1.4-.5-1.4-1c0-.6.9-1 2.1-1 1.1 0 1.7.4 1.4 1zm93 0c.4.6-.7 1-2.7.9-2.7 0-3-.2-1.3-.9 2.7-1.2 3.3-1.2 4 0zm115.5 2c0 2.3-.4 3-2 3-1.4 0-2-.7-2-2.3 0-2.7.7-3.7 2.7-3.7.8 0 1.3 1.2 1.3 3zm11.8-1.9c-.2.6-.8 1-1.3 1s-1.1-.4-1.3-1c-.2-.6.4-1.1 1.3-1.1s1.5.5 1.3 1.1zm-91 4.1c-.3.7-2.7 1.2-6 1.2-4.4.1-6.2.6-8 2.3-2.4 2.2-6.8 3.2-6.8 1.4 0-.4 1.5-2 3.2-3.5 3-2.4 3.8-2.6 8.9-2 4.3.5 5.9.3 7-.9 1.4-1.5 2.4-.7 1.7 1.5zm-62.8-.3c0 .5-.6 1.4-1.4 2-1 .9-1.5.8-1.9-.3-.3-.8-.3-1.7 0-2 .9-.9 3.3-.7 3.3.3zm12.8 2.3c.4 3.6-2.8 5.5-5 2.9-2.1-2.5-.6-6.3 2.4-5.9 1.6.2 2.4 1.1 2.6 3zm92.4-1.7c0 .5-.5 1.1-1.1 1.3-.6.2-1.1-.4-1.1-1.3s.5-1.5 1.1-1.3c.6.2 1.1.8 1.1 1.3zm-158.9.2c-1.3.2-3.3.2-4.5 0-1.3-.2-.3-.4 2.2-.4s3.5.2 2.3.4zm228 1.3c.3 1.2 0 2-.8 2-.7 0-1.5-.9-1.8-2-.3-1.2 0-2 .8-2 .7 0 1.5.9 1.8 2zM640 141.1c0 1-.7 1.9-1.5 1.9-1.5 0-2.1-3.1-.9-4.3 1.1-1 2.4.3 2.4 2.4zm-121.6-.5c.9.3 1.6 1 1.6 1.6 0 1.4-6.3.5-6.8-1-.4-1.3 2.5-1.6 5.2-.6zm24 0c2 .8 1.1 2.4-1.5 2.4-1.9 0-2.5-1.1-1.2-2.3.8-.8.8-.8 2.7-.1zm-11.1 1.1c-.7.2-1.9.2-2.5 0-.7-.3-.2-.5 1.2-.5s1.9.2 1.3.5zm64.7-.3c0 .9-3.9 1.3-5.1.5-1-.6-.4-.9 1.9-.9 1.7 0 3.2.2 3.2.4zm36.1 4.9c-1.6 1.6-4 0-3.4-2.3.5-2 .6-2 2.5-.4 1.2 1.1 1.5 2.1.9 2.7zm60.1.9c-1.5 1.5-2.7-1.4-1.7-4 .6-1.5.8-1.5 1.8.6.7 1.6.7 2.6-.1 3.4zM575 147c0 1.6-.4 3-.9 3-.8 0-.9-4.3-.2-5.8.5-1.1 1.1.3 1.1 2.8zm72.9-2.1c.9.6 1 1 .2 1.6-1.6.9-4.4-.2-3.6-1.5.8-1.2 1.6-1.2 3.4-.1zm93.2.4c-.1 1.2-1.5.9-1.9-.4-.3-.6.1-1 .8-.8.6.3 1.1.8 1.1 1.2zm-183.8.4c-.7.2-1.9.2-2.5 0-.7-.3-.2-.5 1.2-.5s1.9.2 1.3.5zm-55.7 2.6c.7 2.4-1.3 4.7-4.1 4.7-2.3 0-3.5-1.7-3.5-5.1 0-1.6.6-1.9 3.5-1.7 2.4.1 3.7.8 4.1 2.1zm200.4 1.3c0 .8-.9 1.4-2 1.4-2.1 0-2.4-.8-1.4-3.4.5-1.3.9-1.4 2-.5.8.6 1.4 1.8 1.4 2.5zm-424 0c0 .8-.6 1.4-1.4 1.4-1.8 0-2.9-2.7-1.3-3.3 1.6-.6 2.7.1 2.7 1.9zm247.2.6c-.9.9-1.2.7-1.2-1.2s.3-2.1 1.2-1.2c.9.9.9 1.5 0 2.4zm228.8-1.3c0 .5-.6 1.1-1.2 1.4-1.8.6-3.9-.3-3.2-1.4.7-1.2 4.4-1.2 4.4 0zm26 .5c0 .9-3 1.4-3.5.6-.4-.6.3-1 1.4-1 1.2 0 2.1.2 2.1.4zm-221 4.7c.8 1.3 1.1 7 .9 15.7l-.3 13.7 4.2.7c5.6.9 6.3 1.5 5.6 4.4-.3 1.3-.1 3.1.6 3.9.7.8.8 2 .3 2.7-1.2 2-3.2 19.2-2.3 20.2 1.1 1.1 3-.1 3-1.9 0-.7.7-1.5 1.5-1.9.8-.3 1.5-1.4 1.5-2.4s.9-2.7 2-3.7 2-2.4 2-3.1c0-.7 1.3-2.8 2.8-4.6 1.6-1.8 3.2-4.1 3.5-5.1.5-1.4 1.5-1.7 3.9-1.5 2.7.2 3.5.9 4.3 3.4.6 1.7 1.8 3.8 2.8 4.8 2.8 2.8 2.2 7.2-1.7 11-2.2 2.3-3.8 5.1-4.6 8.5-.6 2.7-1.8 5.5-2.6 6.2-.8.6-1.4 1.9-1.4 2.8 0 .9-1.4 2.5-3.1 3.5-1.7 1-3.4 2.8-3.9 3.9-.5 1.3-.9 1.6-.9.7-.1-.8-.6-3.2-1.2-5.3l-1-3.7-5.4.3c-2.9.2-6 .9-6.8 1.5-2.1 1.7-3.7-.5-3.7-5.1 0-2.1-.5-4.7-1-5.8-1.5-2.7-.1-11.8 2.1-14 1.1-1.1 1.9-2.8 1.9-3.9 0-1.6-.7-2-3-2-2.9 0-3 .2-3 4.3 0 3.1-.6 4.9-2 6.2-1.1 1-2 3.1-2 4.7 0 4.1-2.4 9.3-5.1 11.2-1.3.9-4 1.6-6 1.6-3.4 0-3.7-.3-5.3-4.5-1-2.5-2-4.5-2.2-4.5-.2 0-2.4 2-4.7 4.5-4.4 4.6-7.1 5.4-10.7 3.5-2.4-1.3-3.1.6-2.9 7.6.1 2.7-.3 9.7-1 15.7-.6 5.9-.8 12.7-.5 15 .5 3.7.2 4.6-2.4 7.3-6.9 7.5-10 3.3-8.8-12.2.3-4.8 1-9.2 1.5-9.8.5-.6 1.2-9.4 1.5-19.5.6-13.6 1.2-19.3 2.3-21.5 1-1.9 1.3-4.4 1-7-.2-2.3-.2-10 .2-17.1.6-12.5.7-13.1 3.6-16.8 1.7-2 3.5-3.7 4.1-3.7 1.7 0 3.4 7 3.4 13.9 0 6 .1 6.1 3.9 8.5 6.1 3.9 12.1 10 12.1 12.4 0 3 2.2 2.8 6.1-.5 3.7-3.2 6.8-9.5 6.9-14 0-2.7-.5-3.4-2.5-3.9-3.3-.8-3.2-2.2.3-2.6l2.7-.3.1-9.8c.3-13.6.6-14.7 4.9-14.7 2.5 0 3.7.6 4.5 2.1zm-165.5-.1c-.3.5-1.7 1-3.1 1-1.3 0-2.4-.5-2.4-1 0-.6 1.4-1 3.1-1 1.7 0 2.8.4 2.4 1zm128 2.5c0 3.1-1.9 4.5-2.8 2.1-.8-2 .4-5.7 1.7-5.3.6.2 1.1 1.6 1.1 3.2zm-267.5-.1c0 .2-.7.9-1.5 1.6-1.2 1-1.5 1-1.5-.4 0-.9.7-1.6 1.5-1.6s1.5.2 1.5.4zm284 .6c0 .5-.4 1-1 1-.5 0-1-.5-1-1 0-.6.5-1 1-1 .6 0 1 .4 1 1zm-169.9 4c2.1 1.2 2.5 4.1.8 7.3-2.5 4.6-6.3 4.9-10.2.9-3.3-3.5-3.3-3.9-.1-6.8 2.7-2.6 6.3-3.1 9.5-1.4zm136.9 0c0 .5-.5 1-1.1 1-.5 0-.7-.5-.4-1 .3-.6.8-1 1.1-1 .2 0 .4.4.4 1zm-300.8 4.6l1.5 3.7-5.4 5.6c-8.5 8.9-10.5 12.9-11 23-.3 4.7-1 9.2-1.6 9.8-.5.7-2.2 1.3-3.8 1.3-2.4 0-3.2-.7-5-4.5-1.3-2.8-1.9-5.6-1.6-7.3 1.6-8.1 3.2-13 4.8-15.1 1.1-1.3 1.9-3.5 1.9-5 0-1.4.5-4.3 1-6.3 1.1-3.7 1.1-3.7 5.4-3.2 3.8.6 4.6.3 7.6-2.5 1.9-1.7 3.7-3.1 4.1-3.1.4 0 1.3 1.6 2.1 3.6zm93.7 4.7c1.5 1.9 1.7 13.2.2 14.8-1.1 1.3-3.4 4.7-7.1 10.8-2 3.2-12.3 8.8-17.8 9.7-5.5.8-7.2-.6-7.2-5.9 0-2.2-1-6-2.1-8.5l-2.1-4.3 3.1-3.7c1.7-2 3.6-4.8 4.1-6.2 1.1-2.7 8.4-8 14-10 1.9-.7 3.9-1.6 4.3-2 .9-.8 8.8 3.2 10.6 5.3zm227.4-2.8c.4.8.2 1.7-.3 2-.6.4-1-.3-1-1.4 0-2.5.6-2.7 1.3-.6zm-291.1.9c1 .7 2.6 3.4 3.7 5.9 1.1 2.6 2.3 4.7 2.5 4.7.3 0 2.1-1.6 4-3.5 3.9-3.9 7.5-4.5 10.2-1.8 1.4 1.5 1.6 3 1 10.8-.4 4.9-.7 10.7-.6 12.8.1 5.6-.7 7.4-4.2 9.2-2.9 1.4-3.3 1.4-5.1-.2-1.6-1.5-1.8-2.6-1.2-7.3.4-3 1.4-7.2 2.3-9.4 1.4-3.6 1.4-4-.3-5.2-2.7-2-4.2-1.7-6.2 1.2-1 1.4-2.6 3.5-3.6 4.5-1 1.1-2.1 3.9-2.6 6.2-.8 4.6-6.5 11.8-8 10.2-1.5-1.7-3.2-10.7-2.6-13.5.3-1.6 1.5-3.6 2.6-4.6 2.1-1.9 2.5-6.7.9-10.9-.8-2.1-.5-3.3 1.5-6.5 2.8-4.4 3.2-4.6 5.7-2.6zm465.5 7.8c-.2 1.8-.4.4-.4-3.2s.2-5 .4-3.3c.2 1.8.2 4.8 0 6.5zm-316.9-3.8c2.2.8 4.4 1.1 4.8.8.4-.4.4-.1 0 .5-.4.8-.1 1.3.8 1.3s1.6.6 1.6 1.2c0 .7 1.8 3.1 3.9 5.4 3.8 3.9 3.9 4.3 3.1 8-.5 2.1-1 5.3-1 7 0 2.6-.5 3.3-2.5 3.8-1.4.4-3.3 1.9-4.3 3.5-4.3 6.9-14 12.7-19.4 11.6-4.4-1-5.8-2.2-5.8-5.2 0-1.4-1-4.3-2.2-6.4-2.1-3.8-2.1-4-.5-8.7.9-2.6 1.7-5.7 1.7-6.9 0-1.2.5-2.5 1.1-2.9.6-.3 1.7-2.2 2.5-4 .8-1.9 1.8-3.4 2.3-3.4.6 0 1.3-.9 1.6-2 .6-1.9 4.8-4.9 7.1-5 .6 0 3 .6 5.2 1.4zm33.2 2.2c2.6 2.2 3 3.1 2.5 5.5-.7 3 .3 3.7 2.2 1.8 4-4 12.5 1.6 13.8 9.1.4 2.2 1.1 4.2 1.6 4.6.5.3.9 3.4.9 6.8 0 10.7-8.8 25.4-12.2 20.5-.5-.8-.7-6-.4-12 .7-13.9.1-17.7-3.1-18.5-1.4-.4-4.2-.1-6.3.5-3.5 1-4 1.6-5.6 6.6-.9 3.1-2.1 5.8-2.5 6.1-.5.3-.9 2.4-.9 4.7 0 2.3-.7 6-1.4 8.2-1.2 3.4-1.8 4-4.2 4-2.1 0-3.4-.9-5.5-4-2-2.9-2.4-4.3-1.7-5.2.6-.7.7-1.3.3-1.3-.4 0-.3-.6.3-1.3.5-.6 1.3-3.3 1.7-6 .4-2.7 1.3-4.7 2-4.7.6 0 1.8-1.8 2.5-4s1.6-4 2.1-4c1.3 0 2.3-3.5 2.4-9 .1-4.3.6-6.1 2.5-8.3 3-3.4 5-3.4 9-.1zm-194.2.6l2.1 2.3-2.7 4c-2.9 4.3-5.4 12-5.7 17.3-.1 1.7-.9 4-1.7 5-.9.9-1.8 2.4-2.1 3.2-.5 1.7-.4 2-3.1-7.1-1.9-6.6-2-8.6-.5-14.3 1.1-4.5 7.6-12.6 10.1-12.6.8 0 2.4 1 3.6 2.2zm537.1 1.7c.6 1.1.8 5.3.5 10.2l-.6 8.4-5.6 5.7c-4.1 4.2-5.3 6.2-4.9 7.7.5 1.9-.3 2.6-2.5 2.2-.4 0-2.7 2-5 4.7-2.4 2.6-5.7 6.1-7.5 7.8-3 3-3.1 3.4-2.1 7 .5 2.2 2.3 5.1 3.9 6.5 2.7 2.4 4 2.7 14.2 3.3 6.1.4 19.2.7 28.9.7 12.8-.1 18.4.2 20 1.1 1.3.7 4.7 2 7.7 2.8 3 .8 5.6 2 5.8 2.6.2.6-1.3 1.9-3.3 2.9-2.9 1.4-7.9 2-22.3 2.6-29.4 1.3-43.7 1.1-45-.5-.6-.7-2.8-1.6-4.9-2-3.9-.6-8.6-4.3-13.3-10.4l-2.6-3.3-6.1 1.2c-6.7 1.4-14.2.1-14.2-2.6 0-.8-1-2.1-2.2-2.9-2-1.4-2.3-1.4-3.1-.1-1 1.8-8.4 2-12 .4-3.7-1.7-5.8-6.3-6.6-14.3-.5-5.9-.3-8 1.2-11.4 1.5-3.5 2.2-4.2 4.6-4.2 2.5 0 3-.5 3.5-3.6.6-3.1 1-3.4 2.9-2.8 2.5.9 3.3.9 10.4-.1l5.1-.8 3.1 5.4c3.6 6.4 3.7 7.3 1.1 12.4-2 4-2.6 11-1.1 13.3 1 1.7 9.3-.2 11.5-2.7.9-.9 2-4.6 2.5-8.2 1.1-7.6 4.4-15.1 8.8-19.9 1.8-1.9 3.3-4.1 3.3-4.8 0-.7.9-2 2-2.9 1.1-1 2-2.2 2-2.8 0-.6 2.3-3.2 5.1-5.8 4.7-4.4 5.4-4.7 10.4-4.7 4.3 0 5.6.4 6.4 1.9zM530 179.2c0 .5-.4.8-1 .8-.5 0-1-1-1-2.3 0-1.8.2-1.9 1-.7.5.8 1 1.8 1 2.2zm61 2.8c0 .5-.6 1-1.4 1-.8 0-1.8-.5-2.1-1-.3-.6.3-1 1.4-1 1.2 0 2.1.4 2.1 1zm126.8.2c-.3.7-1.1 1.3-1.8 1.3s-1.5-.6-1.7-1.3c-.3-.7.4-1.2 1.7-1.2 1.3 0 2 .5 1.8 1.2zm-31.5 4c-.2.5-1.3.8-2.4.8-1.7 0-2-1.4-1-4.8.1-.1.9.6 1.9 1.5 1.1 1 1.7 2.1 1.5 2.5zm-83.3.9c0 .5-.4.9-1 .9-.5 0-1-.7-1-1.6 0-.8.5-1.2 1-.9.6.3 1 1 1 1.6zm24 1.9c1 0 2.1-.6 2.3-1.3.5-1.2 2.8.9 6.2 5.9 2.2 3.1 2.5 8.2.6 9.7-2.3 1.7-6.1 9.7-6.1 12.8 0 3.5 1.6 4 10.5 3.2 9.6-.8 11.1-2.2 10.8-10.2-.1-3.2-.6-6.8-1.1-8.1-1-2.8.9-7.3 4.6-10.8 2.5-2.3 3.5-2.6 8.9-2.4 6 .3 12 12.1 8.1 16-1.6 1.6-4.3 1.5-5.8-.3-.7-.8-2.5-1.5-4.1-1.5-3.3 0-3.7 1.9-1.4 6 .8 1.4 1.4 4.7 1.5 7.4 0 4.5-.4 5.2-4.9 9.7-3.7 3.8-5.5 4.9-7.9 4.9-2.1 0-3.5.7-4.2 2-.8 1.5-2.1 2-4.8 2-2.1 0-4.3.5-4.9 1.1-.7.7-1.4.1-2.3-2-.7-1.7-2.2-3.3-3.4-3.7-1.1-.4-3.2-1.5-4.6-2.6-1.9-1.5-3.4-1.8-6.7-1.3-6 .9-7.8.1-11.8-5.2-3.3-4.3-3.5-5.1-3.5-12 0-5.6.4-7.5 1.5-7.9.8-.4 2.5-2.4 3.7-4.6 1.5-2.5 3.2-4.1 4.8-4.4 1.4-.3 4.1-1.8 6-3.4 3.3-2.7 3.5-2.7 4.8-.9.7 1 2.2 1.9 3.2 1.9zm69.5 1c.3.5-.1 1-1 1s-1.3-.5-1-1c.3-.6.8-1 1-1 .2 0 .7.4 1 1zm-223.1 26.6c.9 2.4.7 7.3-.4 9.5-.6 1-1.5 4.4-2.1 7.4-1 5.5-4.3 11.9-6.6 12.9-.7.3-2 .3-2.8 0-2.2-.9-2.1-11.1.3-13.7.9-1 2.1-4.8 2.7-8.5.8-5.6 1.4-6.9 3.5-7.9 3.3-1.7 4.7-1.6 5.4.3zm122.4 9.4c1.6 2.6.6 4.6-1.4 2.9-1.5-1.2-2-4.9-.6-4.9.4 0 1.3.9 2 2zM424 229.4c0 1.4-.4 2.8-1 3.1-.6.4-1-.7-1-2.4s.5-3.1 1-3.1c.6 0 1 1.1 1 2.4zm126 1.6c0 .5-.5 1-1.1 1-.5 0-.7-.5-.4-1 .3-.6.8-1 1.1-1 .2 0 .4.4.4 1zm41.4 2.9c1 1.5-1.3 6.3-2.7 5.8-1.4-.4-2.1-3.2-1.3-5.3.6-1.6 3.2-1.9 4-.5zM616 235c0 .5-.6 1-1.4 1-.8 0-1.7.6-1.9 1.2-.3.7-.6.3-.6-1-.1-1.6.5-2.2 1.9-2.2 1.1 0 2 .4 2 1zm7.1.5c-.1 1.5-2.4 1.2-2.9-.3-.3-.9.2-1.3 1.2-1 1 .1 1.7.7 1.7 1.3zm48.9-.5c0 .5-.7 1-1.6 1-.8 0-1.2-.5-.9-1 .3-.6 1-1 1.6-1 .5 0 .9.4.9 1zm-150.8 2.5c-.2 1.4-.6 2.5-.8 2.5-.2 0-.4-1.1-.4-2.5s.4-2.5.9-2.5c.4 0 .6 1.1.3 2.5zM570 236c0 .5-.5 1-1.1 1-.5 0-.7-.5-.4-1 .3-.6.8-1 1.1-1 .2 0 .4.4.4 1zm39.3 3.2c-1.3.6-2.5 1.9-2.8 2.9-.7 2.1-2.7 3-4.5 1.9-1.6-1-.3-3.3 1.6-2.6.8.3 1.1 0 .8-.9-.4-.9.4-1.5 2.3-1.8 4.6-.7 4.9-.6 2.6.5zm40.7-.4c0 .5-.9 1.7-1.9 2.6-1.9 1.7-2 1.7-3-.3-1.6-2.9-1.4-3.1 1.9-3.1 1.7 0 3 .4 3 .8zm31 1.2c0 .5-.6 1-1.4 1-.8 0-1.8-.5-2.1-1-.3-.6.3-1 1.4-1 1.2 0 2.1.4 2.1 1zm-20.7 2.3c.3.8.1 2-.4 2.8-.7 1.2-1.1 1.1-2.5-.3-1.7-1.7-1.2-3.8 1.1-3.8.7 0 1.5.6 1.8 1.3zm-239.9.6c.3.5-.1 1.1-.9 1.5-1.5.6-2.9-.7-1.8-1.8.9-.9 2.1-.8 2.7.3zm19.3 2.3c-.3.8-.6.5-.6-.6-.1-1.1.2-1.7.5-1.3.3.3.4 1.2.1 1.9zm249.3-1.8c0 .3-.4.8-1 1.1-.5.3-1 .1-1-.4 0-.6.5-1.1 1-1.1.6 0 1 .2 1 .4zm-441.1 2.5c1 1 2.2 4.1 2.6 6.8.7 5.7 1.2 6.6 4.3 8.2 4.4 2.3 7.1 12.7 6.3 23.6-.1.6-1.9 3.5-4.2 6.5-3.8 5.1-8 7.7-10.1 6.4-1.5-1-.8-6.6 1.2-9.1 1.1-1.4 2-3.4 2-4.4 0-1 .4-2 .9-2.3 1.8-1.2 2.3-7.7.6-10.2-2.7-4.1-5.5-2.6-5.5 2.9 0 1.2-.7 4.2-1.6 6.7-.8 2.4-1.9 7.8-2.4 11.9-.4 4-1.3 7.7-1.9 8-.6.4-1.6 4.5-2.1 9.2-.6 4.6-1.5 9.7-2 11.3-.6 1.6-1 4.5-1 6.5-.1 2-.9 5.1-1.8 6.9l-1.8 3.2-2.5-2.9c-1.9-2.1-2.5-3.9-2.4-6.3.3-4.9 2.3-17.6 3.5-22.8.6-2.5 1.5-7.9 2.1-12 2.1-14.5 5-28.3 6.4-30.4.9-1.2 1.5-4.4 1.5-8.3 0-10.5 3.1-14.2 7.9-9.4zm116.9 2.5c1.6 3.2.8 9.1-1.2 9.9-.8.3-3 .1-5-.5-3.2-1-3.6-1.5-3.6-4.4 0-2.4.6-3.7 2.3-4.5 1.2-.7 2.6-1.8 3-2.6 1.2-2 3-1.1 4.5 2.1zm50.4 11.9c2.4 3.3 1.4 5.2-3.3 6.2-6.5 1.4-9.9-4.5-5.6-9.5.9-1.1 1.7-2.3 1.7-2.6 0-.2.6-1.1 1.3-1.9 1-1.1 1.4-.8 2.5 1.8.8 1.7 2.3 4.4 3.4 6zM328 255c1.1 1.1 2 2.8 2 3.7 0 2.9-4.1 6.3-7.6 6.3-5.9 0-6.6 3.9-1.5 9.1 1.4 1.4 3.9 4.7 5.4 7.2 2.1 3.5 3.5 4.7 5.2 4.7 2.8 0 10.3-3.8 13.6-6.9 1.2-1.1 2.6-2.1 3.1-2.1.4 0 .8-.7.8-1.5s1.1-2.2 2.4-3c1.4-.9 2.9-3 3.5-4.6.8-2.3 1.6-2.9 3.8-2.9 5.2 0 6.7 3.8 3.8 9.4-.8 1.6-1.8 6.1-2.1 10-.8 9.4-2 13.1-4.7 14.3-3.3 1.5-5.4-.4-6.2-5.9-.9-5.6-3-6.9-5.9-3.5-1.2 1.3-3.7 3.5-5.7 4.8-6.7 4.5-13.8 10.4-13.8 11.6-.1 1.3-6.3 2.9-9.6 2.4-2.7-.3-4.5-2.9-4.5-6.3 0-2.2.8-3.3 3.1-4.6 6.6-3.6 7.3-4.6 6.1-8-.6-1.8-2.4-4.9-4.1-6.9-4.1-5.3-7.5-14.6-6.7-18.8.8-4.1 4.3-8.7 6.5-8.4.9.1 2.7-.3 4.1-.9 3.8-1.7 6.8-1.4 9 .8zm108.5 0c.3.5-.3 1-1.5 1s-1.8-.5-1.5-1c.3-.6 1-1 1.5-1s1.2.4 1.5 1zm-238.7 3.5c2.4 2.8 5.7 3.2 8.6 1 2.4-1.8 5.8-1.9 7.4-.3 1.6 1.6 1.5 9.7-.1 12.4-4.8 8-6.1 9.5-8.9 10.1-3.6.7-4.5 2.6-2.9 6 1.1 2.3 1.6 2.5 5.7 2 3.9-.4 4.7-.1 6.4 2.1 1.1 1.3 2 3.1 2 3.9 0 1.8-4.2 3.3-9.5 3.3-6 0-9.1-1.4-9.9-4.4-.3-1.4-1.7-3.6-3-4.9-3.8-3.8-4.4-11.3-1.3-17.6 3-6.4 2.3-7.9-3.1-6.3-10.1 3-15 11-15.9 25.9-.6 9.2-1.6 10.9-5.6 9.4-4.2-1.6-5-4.4-4.2-14.4.7-9.4 3.2-17 5.9-18 .9-.4 2.5-2.1 3.5-3.8 2.1-3.4 7.7-6.2 15.6-7.8 6.3-1.4 7-1.3 9.3 1.4zm90.6-.6c3.6 1.4 6.6 4.3 6.6 6.3 0 2.3-3 3.4-9.5 3.7-4.3.1-5.4.6-7.8 3.4-2.3 2.7-2.7 4-2.5 8.6.1 4.1-.2 5.7-1.5 6.5-2.3 1.5-5.2-1.5-6.7-7-1.1-3.8-1-5.4.5-11 1.7-6.5 3.4-8.4 7.3-8.4 1.1 0 2.5-.7 3.2-1.5 1.4-1.7 6.6-2 10.4-.6zm432.4 10.8c.4 2.7-.5 2.9-3 .6-2.4-2.2-2.3-3.5.5-3.1 1.4.2 2.3 1.1 2.5 2.5zm-421.1 10.9c-.5 5.4-5 14.7-7.9 16.6-3.4 2.2-7 2.9-8.5 1.6-1.7-1.4-1.7-6.4.1-7.1 1.8-.7 7.6-10.9 7.6-13.5 0-1.1 1.2-2.9 2.8-4.1l2.7-2 1.8 2.2c1.3 1.6 1.7 3.4 1.4 6.3zm372.8-2.6c-.5.8-1.1.8-1.7.2-.6-.6-.7-1.6-.3-2.2.5-.8 1.1-.8 1.7-.2.6.6.7 1.6.3 2.2zm38.2-1.4c-.3.3-1.2.4-1.9.1-.8-.3-.5-.6.6-.6 1.1-.1 1.7.2 1.3.5zm-95.2 4.4c.9 1.4-3.6 2.9-5.9 2-1.1-.4-2.2-1.2-2.4-1.8-.5-1.5 7.4-1.6 8.3-.2zm77.5 0c0 .5-.7 1-1.5 1s-1.5-.5-1.5-1c0-.6.7-1 1.5-1s1.5.4 1.5 1zm-54 6.7c0 1.9-.3 2.4-1 1.7-.6-.6-.8-1.8-.4-2.7.9-2.4 1.4-2.1 1.4 1zm-110.3 1.5c-.3.7-.5.2-.5-1.2s.2-1.9.5-1.3c.2.7.2 1.9 0 2.5zM417 303.9c0 2.1-2.6 3.6-3.6 2-.9-1.5.3-3.9 2.1-3.9.8 0 1.5.9 1.5 1.9zm299.6 4.9c-1.2 1.1-1.8-.7-1-3l.8-2.3.4 2.3c.2 1.3.1 2.6-.2 3zM603 344.5c0 .8-.4 1.5-1 1.5-.5 0-1-.7-1-1.5s.5-1.5 1-1.5c.6 0 1 .7 1 1.5zm-468.6 12.9c4.9 2.4 8.6 7 8.6 10.6 0 1-.4 2.1-.9 2.4-.4.3-1.1 2.4-1.5 4.5-1 6.6-2.4 8.6-7.1 10.3l-4.3 1.6-1.1-2.6c-.6-1.5-1.3-5.9-1.6-9.7-.2-3.9-.7-9.5-1.1-12.7-.6-5.7-.5-6 3.6-6.7.3 0 2.7 1 5.4 2.3zm232 1.1c.3 1.3.2 4.4-.3 6.7-.6 2.4-.7 6.1-.4 8.4.4 3.4-.1 5.2-3 10.8-2.7 5-3.8 8.5-4.3 13.9-.5 5.3-.9 6.6-1.5 4.9-.5-1.2-2.6-2.9-4.9-3.8-2.4-1-4-2.3-4-3.3.1-3.9 2.1-9.7 3.8-11.1 1.9-1.5 2.6-4.5 4-16.7.9-6.8.7-6.6 5.4-9.9 4.2-2.9 4.5-2.9 5.2.1zm91.6 29.9c3.5.1 5.9 1 10.5 4.1 3.3 2.2 6.9 4.2 7.9 4.5 1.1.3 2.1 1.5 2.2 2.8.4 2 0 2.2-3.5 2.2-2.2 0-4.2-.4-4.5-.9-.3-.5-3.2-1.9-6.3-3.2-3.2-1.2-7.1-3.3-8.7-4.6-2.4-2-3.5-2.3-7.2-1.7-3.1.4-4.9.2-6-.7-1.5-1.2-1.4-1.5 1.2-2.6 1.7-.8 4.3-1 6.4-.6 1.9.3 5.5.7 8 .7zm-111.3 10.8c-.2 5.9.4 7.8 3 9 3.4 1.6 5.3 5.2 5.3 9.8 0 4.6-1 8.1-2.1 7.4-.5-.3-3.4-.9-6.6-1.4-3.1-.5-6-1.5-6.5-2.2-1.2-1.9-1-6.2.4-7.6 1.4-1.4 3.8-8 3.8-10.5 0-1.8 1.7-5.7 2.4-5.7.2 0 .4.6.3 1.2zM129 411c1.8 1.3 2.9 3.2 3.3 5.7.4 2.1 1.6 5.6 2.7 7.8 1.1 2.1 2 4.5 2 5.2 0 .7.6 2.2 1.2 3.3 1.1 1.7 1 2.5-.2 4.8-1.6 2.8-4.6 3.8-8.6 2.8-2.1-.6-2.4-1.2-2.4-5.4-.1-2.6-.7-6.5-1.5-8.7-2.2-6-2.9-12.9-1.6-15.4 1.4-2.6 1.6-2.6 5.1-.1zm329 2.2c13.5-1 18.6-.7 23 1.5 5.7 2.8 10.7 7.2 11.5 10.1.6 1.9 0 2.5-4.7 4.7-2.9 1.4-7.7 3-10.6 3.6-4.7 1.1-5.7 1-10-.9-2.6-1.2-6.3-2.4-8.2-2.8-1.9-.3-4.4-1.5-5.6-2.5-1.6-1.5-4-2-10.4-2.4-5.2-.2-8.9 0-9.7.7-1 .8-1.3.6-1.3-1 0-3.2 4.6-6.2 9.4-6.2 4.5 0 8.6-2.2 8.6-4.6 0-1.2.6-1.3 2.3-.7 1.2.4 3.8.6 5.7.5zm-51.2 31c.7.7 1.2 4 1.2 8 0 5.3-.4 7.2-1.8 8.6-1 1-3 3.9-4.3 6.3-1.9 3.4-3 4.4-4.9 4.4-1.4 0-3.9 1-5.7 2.2-3.9 2.9-4.6 2.9-7.7 0-6.2-5.7-8.5-20.3-3.9-24.8 1.6-1.7 2.4-1.8 4.8-.9 3.7 1.4 13.5-.6 15.3-3.2 1.5-2.1 5.2-2.4 7-.6zm-56.3 27.5c.4 3.2 1.4 7.3 2.1 9.2 1.8 4.4 1.8 8.6-.1 10.5-.8.8-1.5 1.9-1.5 2.5 0 1.7-1.5 1.3-3.6-1-1.7-1.9-2.4-4.2-5.3-17.4-1-4.4-.4-5.7 3.8-7.9 3.9-2.1 3.9-2.1 4.6 4.1zm90.5 18.7c.6 1.9 1.9 3.6 3 3.9 3.5.9 2.2 2.7-1.9 2.7-2.2 0-4.6.3-5.4.6-1 .3-1.8-.5-2.6-2.7-1.4-4.1-1.4-4.5.5-6.3 2.6-2.7 5.1-2 6.4 1.8zm-81 6c0 .3-.4.8-1 1.1-.5.3-1 .1-1-.4 0-.6.5-1.1 1-1.1.6 0 1 .2 1 .4zm40 15.6c0 .5-.7 1-1.5 1s-1.5-.5-1.5-1c0-.6.7-1 1.5-1s1.5.4 1.5 1zm80 48.7c.3 3.3 1 6.6 1.6 7.4.7.8 1.5 3 1.9 4.9.4 1.9 1.8 4.7 3.1 6.1 2.8 2.9 2.4 5.9-.8 5.9-5.7 0-14 6.7-13.6 10.9.2 1.8-.2 2.6-1.2 2.6-.8 0-1.4-.8-1.4-1.8.1-.9-.2-1.7-.8-1.7-.5 0-.7-.4-.4-.9.6-.9-5.8-7.1-7.3-7.1-.5 0-1.6-1.5-2.4-3.3-1.9-4-3.9-5.8-9.1-8.4l-3.9-2 7-1.8c6.2-1.6 7.1-2.2 8.9-5.4 1.3-2.4 3.7-4.6 7.2-6.5 2.9-1.5 5.6-3.4 5.9-4.2.3-.7 1.5-1.2 2.6-1 1.9.2 2.3 1.1 2.7 6.3zM172 622c0 1.4-.9 3.8-2 5.5-2.2 3.3-2.6 7.9-1 12.1 1.1 2.9.1 4.4-3.1 4.4-2.2 0-4.5-4.5-3.1-6.3.6-.7 1.4-4.3 1.8-8.1 1.1-10.3 7.3-16.8 7.4-7.6zm-12.3 32.6l-1.4 3.9-.5-4c-.7-5.3 0-7.1 1.9-5.3 1.1 1.2 1.1 2 0 5.4zm3.3 8.5c0 1-5.3 1.2-6.3.3-.3-.3-.1-1.4.5-2.4 1.1-1.6 1.4-1.7 3.5-.3 1.3.8 2.3 1.9 2.3 2.4zm42 .5c1.4 3.6 1.3 4.4-1 4.4-1.6 0-2-.7-2-3.5 0-4.1 1.6-4.6 3-.9zm618.3-1.9c2.6.4 3.4.9 2.5 1.4-2.7 1.8-11.4.7-10.2-1.2.6-1.1 2.5-1.1 7.7-.2zm-650.8 7.2c.3.6 2.7.7 5.4.4l4.9-.6 1.2 3.7c.6 2 2.5 4.9 4.2 6.5 2.2 2.1 2.9 3.4 2.4 4.9-.9 2.7-3.5 3.2-6.5 1.3-2.1-1.4-2.4-1.3-4 .8-1.9 2.4-3.1 1.9-3.1-1.4 0-1.2-.9-3-2-4s-2-2.5-2-3.3c0-1.7-2.4-3.8-6-5.3-2.4-1-2.4-1.1-.6-2.5 2.3-1.6 5.2-1.8 6.1-.5zm297.2 1.7c.5 1.4-2.2 2.5-4.2 1.8-.8-.4-1.5-1.3-1.5-2.1 0-1.7 5.1-1.4 5.7.3zm108.7-.7c.4.5.3 1.6 0 2.5-.6 1.5-.8 1.5-1.9-.1-1.3-1.8-1.1-3.3.5-3.3.5 0 1.1.4 1.4.9zm-432.3 4.2c2.5 1.8 2.9 2.7 2.9 6.8 0 3.4-.6 5.5-2 7.1-2.4 2.8-2.6 6.6-.4 10.9 1.9 3.7 1.2 9.6-1.2 10.5-3.8 1.5-4.4.8-4.4-5.4 0-4.8-.4-6.4-2.1-8.1-5.1-5.1-5.2-21.9-.2-23.2 3.4-.9 4.5-.7 7.4 1.4zm15.7 13.2c2 1.6 1.4 5.3-1.3 7.1-2.4 1.6-2.6 1.6-3.1-.1-.5-1.6-2.1-5.4-3.2-7.5-.9-1.8 5-1.5 7.6.5zm419.9-.1c-.3.8-.6.5-.6-.6-.1-1.1.2-1.7.5-1.3.3.3.4 1.2.1 1.9zm-11.3 2.4c.9 2.3.7 6.4-.3 6.4-.5 0-1.6-1.2-2.6-2.6-1.3-2-1.4-2.8-.4-4 1.5-1.8 2.5-1.8 3.3.2zm-375.2 7c-1.2 2.2-2.3.4-1.5-2.5.5-2 .7-2.1 1.5-.7.5.9.5 2.3 0 3.2zm-18.8.9c-1.9 2.9-3.4 3.2-3.4.7 0-2.4.8-3.2 3.2-3.2 1.7 0 1.8.1.2 2.5zm404.2 2.4c-.4.6-1.4.7-2.3.4-1.5-.6-1.4-.7.3-1.3 2.2-.9 2.9-.6 2 .9zm-384.8 2.8c3.1 4.1 4.7 11.4 3.2 14.4-.9 1.7-5.9 3.9-8.7 3.9-.8 0-2.5-1.2-3.8-2.6-3.2-3.4-3.5-10.3-.6-12.1 1.1-.7 2.2-2.6 2.6-4.3.9-4.2 3.6-3.9 7.3.7zm674.2-.2c0 3.4-3.8 4.6-6.1 1.9-1.1-1.4-1-1.8.5-3 1.3-.9 2.4-1 3.7-.3 1.1.5 1.9 1.1 1.9 1.4zm-292.3.7c-.3.8-.6.5-.6-.6-.1-1.1.2-1.7.5-1.3.3.3.4 1.2.1 1.9zm342.3.4c0 .8-.5 1.2-1 .9-.6-.4-.8-1.1-.5-1.6.9-1.4 1.5-1.1 1.5.7zm-7 1.2c0 1-.3 2.2-.7 2.5-1 1.1-3.2-1.3-2.6-2.9.8-2 3.3-1.7 3.3.4zm-334.7 1.7c.4.8.2 1.7-.3 2-.6.4-1-.3-1-1.4 0-2.5.6-2.7 1.3-.6zm-430.5 25.6c.2 4.7-.1 6.9-1.1 7.7-1.1.9-1.8.3-3.5-3.2-3.5-6.9-2.4-12.1 2.3-11.4 1.7.3 2 1.2 2.3 6.9zm29.7-3c1.9 1.7 3.2 3.5 2.9 4-.8 1.3-8.8 1.1-10.2-.3-1.3-1.3-1.6-5-.5-6.1 1.4-1.5 4.4-.6 7.8 2.4zm303.6 7.2c-.1.4-.1 1.4-.1 2.2 0 .8-.4 1.5-1 1.5-.5 0-1-1.2-1-2.6 0-1.4.5-2.4 1.1-2.2.6.2 1 .7 1 1.1zm-289.8 10.1c1.7 2.6 4.7 14.1 4.1 16-.4 1.2-1.7 3.1-2.9 4.4l-2.3 2.2-1.6-4.9c-.9-2.7-1.6-6.5-1.6-8.3 0-1.8-.4-5-.9-7s-.6-4-.3-4.3c.8-.7 4.5.5 5.5 1.9zM440 757c0 1.5-.3 3-.6 3.3-1 1-4.4-3.8-4.4-6.2 0-1.8.3-1.9 2.5-.9 1.8.8 2.5 1.9 2.5 3.8zm107.4 12.2c-.7 1.1-3.1 1-3.8 0-.3-.5-.2-1.9.1-3.2l.6-2.3 1.8 2.4c.9 1.3 1.5 2.7 1.3 3.1zm-383.9-.3c0 .8-.8 1.9-1.8 2.5-1.4.8-2 .8-2.7-.4-1.8-2.8-1.1-4.1 1.8-3.8 1.5.2 2.7.9 2.7 1.7zm27.5 9.8c0 7.7-.7 8.6-6.9 8.6-4 0-5.7-.5-7.2-2.2-1.4-1.5-3.2-2.1-6.4-2.1-3.3 0-4.5-.4-4.5-1.5 0-.8.9-1.5 1.9-1.5 1.1 0 3.2-1.1 4.7-2.5s3.7-2.7 4.8-3c3.7-.8 7-1.2 10.4-1.4l3.2-.1v5.7zm-44 6.3c0 .5-.2 1-.4 1-.3 0-.8-.5-1.1-1-.3-.6-.1-1 .4-1 .6 0 1.1.4 1.1 1zm382 4c0 .5-.4 1-1 1-.5 0-1-.5-1-1 0-.6.5-1 1-1 .6 0 1 .4 1 1zm-365.4 3.4c.3 1.3.3 4.7 0 7.6-.9 7.8 0 10 3.8 10 2.5 0 3.2.5 3.3 2 .1 1.1-.8 2.5-1.9 3.1-1.9 1-2.5.8-4.4-1.5-1.3-1.4-3.2-2.6-4.3-2.6-1.5 0-2.3-1-3-3.8-2.9-10.5-2.6-14.7 1.2-16.2 3.6-1.4 4.6-1.1 5.3 1.4zm-15.7 4.8c0 1.8-.4 4.2-.8 5.2-.7 1.9-.8 1.9-1.4.1-.9-2.2.2-8.5 1.4-8.5.5 0 .9 1.5.8 3.2zm401.6-1.3c.3.5.1 1.2-.5 1.6-.5.3-1-.1-1-.9 0-1.8.6-2.1 1.5-.7zm-361.3 14.6c.4 1.8.3 4.3-.3 6.2-1.1 3.6-2.8 4-7.5 2.3-2.1-.8-2.4-1.4-1.6-2.2.7-.7 1.2-3.2 1.2-5.6v-4.3l3.7.3c3.1.3 3.8.7 4.5 3.3zm-33.8 7.2c1.1 3.8 1 10.3-.1 10.3-1.2 0-5.3-7.7-5.3-9.9 0-2.7 4.6-3 5.4-.4zm384.1 13.8c0 2.3-.4 3-2 3-2 0-4.8-4.2-3.8-5.8.2-.4 1.7-.7 3.1-.5 2.3.2 2.7.8 2.7 3.3zm-378.4 4.2c.5 1.4.9 3.5.9 4.9 0 1.4.7 3.9 1.6 5.6.9 1.7 1.3 4 1 5.4l-.6 2.3-3.5-2.2c-3.1-2-3.4-2.7-3.5-6.8 0-2.9-.6-5.1-1.5-5.9-1.5-1.2-2.1-7.1-.9-8.3 1-1 5.5 2.5 6.5 5zm370.3 16.6c1.7.7 1.4 1.2-2 4.2l-3.9 3.4-2.2-2.5c-2.8-3.1-2.8-3.1-.2-7.4l2.1-3.4 2.2 2.5c1.2 1.4 3 2.8 4 3.2zm-49.7 1.7c-.6 4.9-4.5 11.6-5.9 10.2-.6-.6-1.7-.8-2.4-.5-1.8.7-1.9-2.3-.1-3.4 1.2-.8 1.7-1.5 5.5-7.5 2.4-3.9 3.6-3.5 2.9 1.2zm-299.2 7c.8 0 1.5.4 1.5 1 0 .5-1.1 1-2.5 1-2.1 0-2.5-.5-2.5-2.8.1-2.3.2-2.4 1.1-1 .5 1 1.7 1.8 2.4 1.8zm323.9.3c-.3.9-1 1.7-1.5 1.7-1.1 0-1.2-3.4-.2-4.4 1.1-1.1 2.4.9 1.7 2.7z"/><path d="M495.1 77.7c0 .7-1.3 1.3-2.7 1.3-3.2 0-6.4 1.7-6.4 3.4 0 .8-.7 1.9-1.5 2.6-1.9 1.6-1.9 5 0 5 .8 0 2.5-1.1 3.7-2.5 1.2-1.4 2.7-2.5 3.3-2.5 1.9 0 4.6-4.1 4.2-6.3-.2-1.2-.5-1.6-.6-1zM455 86.5c0 .9-1.1 2.6-2.5 3.9-1.7 1.6-2.2 2.9-1.8 4.4 1.2 4.9 5.3.8 5.3-5.4 0-2.4-.2-4.4-.5-4.4s-.5.7-.5 1.5zM414.7 67.6c-.4.4-.7 2.5-.7 4.6 0 2.1-.9 5.8-2 8-2.2 4.5-3 20.2-.9 16.5.5-.9 1.6-1.7 2.4-1.7 1.4 0 7.5-10.7 7.5-13.1 0-.7.7-2 1.6-3 1.7-1.9 1.3-6.1-1-9.1-1.4-1.9-5.8-3.3-6.9-2.2zm5 9c-.3.3-1.2.4-1.9.1-.8-.3-.5-.6.6-.6 1.1-.1 1.7.2 1.3.5zM315.8 192.5c-.6 2.9.7 4.3 1.6 1.9.9-2.3.7-4.4-.3-4.4-.5 0-1.1 1.1-1.3 2.5zM519.5 197.1c-.8 1.1-.8 2.9-.2 14.4.2 3.8.6 4.2 3.6 3.6 2.2-.3 4.2-5.3 3.6-8.9-.8-4.4-5.9-11-7-9.1zM278.3 180.9c-5.2 4.6-5.9 6.2-4.7 9.5.9 2.4 2.1 2 7.3-2.4 2.6-2.2 5.5-4 6.4-4 2.8 0 4.2-4.1 2.3-6.8-1.8-2.5-6-1.2-11.3 3.7zM379.3 181.8c-.7.5-2.3 3.5-3.6 6.8-1.3 3.2-2.8 6.8-3.2 7.9-1.5 3.6-1.4 6.3.2 6.9 1.8.7 7.3-3 7.3-4.9 0-.8 1.6-3 3.5-4.9 2.4-2.4 3.5-4.5 3.5-6.4 0-4.5-4.4-7.5-7.7-5.4zM739.5 198.1c-1 1.5.3 2.5 1.6 1.2.7-.7.7-1.3.1-1.7-.6-.3-1.4-.1-1.7.5zM690.8 207.7c-4.3 2.1-4.7 2.7-5.4 6.9-.5 3.5-.3 4.9.9 6.1 1.4 1.5 1.8 1.5 4.1-.1 1.4-.9 2.6-2.1 2.6-2.6s1.1-2.6 2.5-4.6c4.8-7 2.7-9.5-4.7-5.7zM619.3 200.5c-4.5 1.9-6.9 6.1-6.4 11.2 0 .7 1.2 1.3 2.5 1.3 2.4 0 3.6-1.6 3.6-5.1 0-1 1.3-2.5 3-3.4 3.3-1.7 3.7-2.7 1.8-4.3-.9-.7-2.3-.6-4.5.3zM514.2 5.9c-1.2 2.7-2.2 5.4-2.2 6 0 .6-.8 2.6-1.9 4.4-2.4 4.3-1.3 6.7 3.2 6.7 3.7 0 5.7-1.5 5.7-4.2 0-1.1-.7-1.8-1.9-1.8-1.4 0-1.8-.5-1.4-2 .7-2.5 1-2.5 5.2.1 2.5 1.5 3.7 1.7 4.5.9.8-.8.6-1.5-.6-2.4-1.1-.8-1.8-2.6-1.8-4.5 0-2-.7-3.5-2-4.3-1.1-.7-2-1.8-2-2.5 0-3-2.7-.9-4.8 3.6zM524 2c0 .6.7 1 1.5 1s1.8 1.2 2.1 2.6c.5 1.8 1 2.2 1.7 1.5.6-.6 1.9-1.1 2.9-1.1 2 0 2.6-4 .6-4.1-.7 0-3-.2-5-.4-2.1-.2-3.8 0-3.8.5zM557.2 6.7c.2 1 1.3 1.9 2.6 2.1 1.7.3 2.2-.2 2.2-1.7 0-1.6-.6-2.1-2.6-2.1-1.9 0-2.5.5-2.2 1.7zM572.7 8c.6 2.2 1.8 2.6 2.9.9.3-.6 0-1.5-.7-2-2.2-1.4-2.8-1.1-2.2 1.1zM591 13c0 .5-.6 1-1.4 1-.8 0-1.6.6-1.9 1.4-.3.7-2.6 1.8-5.2 2.5-3.5.9-4.6 1.6-4.3 2.9.3 1.8 7.5 3.4 11.1 2.4 2.1-.5 5.8-7.7 5-9.8-.6-1.6-3.3-1.9-3.3-.4zM532.1 14.6c0 1.1.3 1.4.6.6.3-.7.2-1.6-.1-1.9-.3-.4-.6.2-.5 1.3zM606.2 16c0 1.4.2 1.9.5 1.2.2-.6.2-1.8 0-2.5-.3-.6-.5-.1-.5 1.3zM616.4 15.8c.4.7 1.4 1.2 2.2 1.2.8 0 1.4.4 1.4 1 0 .5.9 1 2 1 2.8 0 2.5-1.7-.4-2.4-1.3-.3-3.2-.9-4.2-1.3-1.2-.4-1.5-.3-1 .5zM567.2 17.2c-2.1 2.1-1.3 3.8 1.8 3.8 2.3 0 3-.5 3-1.9 0-1-.7-2.2-1.6-2.5-2-.8-1.8-.8-3.2.6zM440.5 19c-.4.6.7 1 2.4 1s3.1-.5 3.1-1c0-.6-1.1-1-2.4-1-1.4 0-2.8.4-3.1 1zM538.7 22.7c-1.4 1.3-.6 2.3 1.7 2.3 3 0 4.2-1.5 2-2.4-2-.8-2.9-.8-3.7.1zM560.4 23.5c-.3.8-.3 1.9.1 2.5 1.1 1.8 2.5 1.1 2.5-1.5 0-2.7-1.7-3.4-2.6-1zM573 26.9c0 4.1 1.6 4.7 3.4 1.3 1.7-3.2 1.3-4.2-1.6-4.2-1.3 0-1.8.8-1.8 2.9zM597.4 25.8c-.6.4-1 2-1 3.7.1 2.7.4 3 3.6 3 3.3 0 3.5-.2 3.8-3.8.3-3.5.1-3.7-2.5-3.7-1.5 0-3.3.4-3.9.8zM637 30.8c-.7 2.1-1.6 3.9-2 4.2-.4.3-.4 1.5.1 2.7.7 1.9 1.6 2.3 4.8 2.3 2.2 0 4.6.3 5.5.6 1.3.5 1.6-.3 1.6-5 0-5.6 0-5.6-3-5.6-1.6 0-3-.4-3-.9s-.6-1.1-1.3-1.4c-.9-.3-1.8.8-2.7 3.1zM612 32.9c0 3.9.5 5.3 2.8 7.6 1.5 1.5 2.8 3.1 2.8 3.6.1.5.2 1.7.3 2.6.2 2.4 4.4 4.2 8.3 3.7 3.5-.4 7.1-3.3 5.2-4.1-.7-.2-1-1.3-.7-2.3.6-2.2-1.2-2.8-2-.8-.3.8-.6.6-.6-.4-.1-1.1-1.5-2.1-4.1-2.9l-4-1.2V28h-8v4.9zM649.5 43c-.3.5-.1 1 .4 1 .6 0 1.1-.5 1.1-1 0-.6-.2-1-.4-1-.3 0-.8.4-1.1 1zM588.7 50.6c-.5 2.9 1 3.9 4.7 3 1.7-.4 2.4-1.3 2.4-3.1 0-2.2-.5-2.5-3.3-2.5-2.7 0-3.4.4-3.8 2.6zM650 49c-1.4.5-4.3 1.3-6.5 1.9-4.4 1.1-7.2 5.4-6 9.1 1 3.1 2.9 1.9 3.5-2.1.5-3.1.8-3.4 3.5-3 1.7.1 3.3.5 3.6.7.8.5-.1 5.4-1 5.1-1.3-.4-5.4 4.3-5.6 6.5-.2 1.3-.5 3-.6 3.8-.3 1.1.3 1.4 2.6 1.2 4.2-.5 14.6-11.2 13.3-13.6-1.5-2.8-.2-4.6 3.4-4.6 1.8 0 4.3-.3 5.6-.6 2.2-.6 2.2-.7-1.2-3-3.6-2.5-9.5-3-14.6-1.4zM627 59c0 .9-.5 2.1-1 2.6-.6.6-1.1 2.8-1.3 5l-.2 3.9 3.7-.3c2-.1 3.9.2 4.3.8 1 1.6 3.5 1.1 3.5-.8 0-.9-1.2-4.3-2.7-7.4-1.9-4-3.2-5.6-4.5-5.5-1 .1-1.8.8-1.8 1.7zM611.8 72.3c-.9.7-2.1 3.9-2.7 7.1-1 5.7-1 5.8 1.9 8.7l2.9 3 1.5-2.3c.7-1.3 1.7-3.3 2-4.5.5-1.6 1.4-2.1 3.4-2 2.6.2 2.7-.1 3-4.7.4-6.4-1-7.8-4.1-4.2l-2.4 2.8-.7-2.6c-.7-2.8-2.2-3.2-4.8-1.3zM605.7 91.4c-1 2.6-.8 6.4.3 7.1 1.1.7 5-1.1 5-2.3 0-.4-1.1-2-2.3-3.6-2.1-2.5-2.5-2.7-3-1.2zM600.8 99.8c-2.2.3-2.8.9-2.8 2.8s.5 2.4 2.4 2.4c1.8 0 2.5-.7 2.9-2.8.3-1.5.5-2.7.4-2.7-.1 0-1.4.1-2.9.3zM696.8 101.7c-1.2.3-1.7 1.8-2 6-.4 6.4.6 8.9 2.1 5.1.5-1.4 1.3-2.8 1.8-2.9 1.9-.9 5.1-5.5 4.5-6.5-.9-1.4-4.2-2.3-6.4-1.7zM120.8 170.7c-2.6 3.1-2.9 4.1-1.1 3.9.9-.2 2-1.5 2.4-2.9.9-3.2.7-3.3-1.3-1zM158.6 175.6c-2.1.8-4.8 2.4-6 3.7-1.3 1.3-2.9 2.6-3.7 2.9-1.1.4-1.2.8-.1 1.9.6.7 1.2 3.4 1.2 6.1 0 5.4 1.7 9.8 3.7 9.8 2.6 0 5.3-2 5.3-3.9 0-1 .9-3 2.1-4.5 2.2-2.8 4.9-13.4 4-15.7-.8-1.9-1.9-1.9-6.5-.3zM432.2 279.8c-1.2.8-5.2 10.1-5.2 12.3 0 .5 1.6-.3 3.6-1.8 3.3-2.5 6.4-7.5 6.4-10.3 0-1.2-3-1.3-4.8-.2zM47.7 282.7c-1 1.8-2.2 4.4-2.7 5.7-.8 2.3-.7 2.4 1.8 2 4-.8 4.6-1.8 3.6-6.6l-1-4.3-1.7 3.2zM388.1 285.5c-3 3.4-3.1 3.9-3 12.1.1 7.3.4 8.8 2.4 11.2 1.2 1.5 2.4 3.6 2.6 4.7.5 2.7 4.1 3.1 6.3.7 1.6-1.9 1.6-2.1-.7-3.8-2.3-1.9-2.3-1.9-.5-4.9 1-1.6 2.3-5.5 3-8.5.7-3.1 2-6.1 3.1-6.8 1.2-1 1.7-2.4 1.5-4.5-.3-3.1-.4-3.2-5.9-3.5-5.3-.3-5.8-.1-8.8 3.3zM507.2 379.7c-.4 1-.7 4.9-.7 8.8 0 5.8.5 7.8 2.8 11.7 1.5 2.6 2.7 5.8 2.7 7.2 0 1.4.6 2.6 1.3 2.7.6 0 2.4.2 3.8.4 4.5.6 6.5-2.3 7.4-10.6.6-5.9-.6-9.4-4-11.3-1.1-.6-3.9-3.2-6.4-5.9-4.9-5.2-5.8-5.6-6.9-3zM599.2 406.9c-4.2 5.2-11.6 9.5-15.2 8.8-4.1-.9-6.5.1-8.4 3.4-.9 1.6-2.3 2.9-3 2.9-.7 0-1.8 1.1-2.4 2.5-1 2.2-.9 2.6.6 3.1 3.4 1.1 4.7 2.1 5 4.3.2 1.1.7 2.1 1.2 2.1s1.2.9 1.5 2.1c1.1 3.4 5 9 10.1 14.4 2.6 2.7 5.9 7.2 7.3 10 5.9 11.2 18.8 12.8 15.2 1.8-.9-2.9-1-6.1-.2-13.6 1-9.7.7-12.7-1-12.7-.5 0-1.4.9-2.1 2-2.6 4.1-10.8 1.1-10.8-4 0-1 1.1-3 2.5-4.4 1.4-1.4 2.5-3.4 2.5-4.4 0-1.1.8-3 1.8-4.3 2.4-3.1 2.9-14.3.8-16.4-1.9-2-1.8-2-5.4 2.4zM503 467c0 .5.9 1 2.1 1 1.1 0 1.7-.5 1.4-1-.3-.6-1.3-1-2.1-1s-1.4.4-1.4 1zM600.6 486.9c-.3.5.1 1.4.8 2 1.6 1.3 3.2-.2 2.1-1.9-.8-1.2-2.2-1.3-2.9-.1zM365 546.8c0 1.6.9 2.1 4.3 2.4 4.8.6 5.8.3 5.1-1.6-.3-.7-2.1-1.3-4-1.4-1.9-.1-3.9-.4-4.4-.7-.6-.4-1 .3-1 1.3zM374 552c0 .5.7 1 1.5 1s1.5.9 1.5 1.9c0 2.1 1.3 3.5 2.3 2.4 1-.9-2.2-6.3-3.8-6.3-.8 0-1.5.4-1.5 1zM329.6 560c-4.3 1.3-10.2 7.5-12.7 13.4-1.1 2.8-2.6 5.7-3.2 6.4-1.8 2.3-5.7 12.6-5.7 15.2 0 1.4-.9 4.3-2 6.5-2.5 4.8-2.5 6.2-.1 11.7 2.4 5.8 4.3 7.2 8.6 6.5 2.7-.4 3.5-.2 4 1.3 1.3 4.2-1.7 9-5.7 9-1.4 0-4.5-5.2-5-8.5-.5-3.4-3.3-2.4-3.6 1.3-.3 2.7.1 3.5 1.6 3.9 1.6.4 2.1 1.6 2.5 5.1.2 2.6 1.3 6.9 2.3 9.7 1 2.7 2.8 7.9 4.1 11.5 1.3 3.6 2.8 7.3 3.4 8.4.6 1 1.4 5.6 1.9 10.3.5 4.7 1.1 8.8 1.4 9.1.3.2 1.9-1 3.5-2.7 2.4-2.6 2.9-3.8 2.4-6.2-.3-1.6-1.1-2.9-1.8-2.9s-1.6-.7-1.9-1.6c-.9-2.3.5-12 1.4-10.3.8 1.6 2.4 9 2.2 10.1-.1.5.7.8 1.7.8 5 0 6.6 2.6 3.1 4.8-1.6.9-2 2.3-2 6.2 0 4.7-1.1 6.3-2.5 4-.3-.6-1.3-1-2.2-1-1.4 0-1.5 1-1 7.4.4 4 1.2 8.6 1.8 10.2.6 1.6 1.4 6.9 1.8 11.7.6 6.3 1.3 9.1 2.4 10 1.4 1 1.8 3.8 2.2 14.6.4 8.8 1.1 14.3 2 16.2 1.1 1.9 1.5 6.1 1.5 13.6 0 14.1.4 15.6 4 14.8 2.3-.5 2.8-.2 3.2 1.9.3 1.5-.1 3.1-1.1 4.1-1 1-1.8 4.3-2.2 9.8-.7 8.4 0 10.7 3 10.7 1.9.1 6.1 3.4 6.1 4.9 0 .7.7.7 2.4 0 2-.9 2.4-2 2.9-7.6.4-3.6 1.3-7.5 2-8.7.8-1.1 2-3.9 2.7-6.1.7-2.2 1.8-5.1 2.6-6.5.7-1.4 2.3-4.8 3.5-7.5 2.9-6.3 4.3-8.2 14-18.2 4.3-4.5 7.9-9 7.9-10s.9-3.3 2-5.1c1.1-1.8 2-3.8 2-4.5 0-.6.6-2.3 1.3-3.8 2-3.8 4.8-12.2 4.2-12.7-.3-.3-.5-.2-.5.3 0 .4-.9-.4-2.1-1.9-1.1-1.4-2.7-2.6-3.5-2.6-.8 0-1.4-.9-1.4-2s-.5-1.9-1.1-1.7c-2 .4-2.2-2.3-.2-3 3.4-1.3 4.5-3 3.1-5.2-.9-1.5-1.9-1.8-4.3-1.4-4.8.8-8.9-3.6-9.1-9.8-.2-4 .1-4.5 1.9-4.5 2.7.1 4.4-6.3 2.1-8-2.1-1.6-1.8-2.7 1.9-6.1 3.4-3.3 7.1-3.8 9.1-1.1 1.6 2.1 5.6 3 5.6 1.2 0-3.1 3.6 0 4.3 3.7.2 1.3.5-.1.6-3.2.1-3.8-.4-6-1.3-6.8-1.3-1.1-2.2-6.1-3-17.1-.4-5-.4-5-2.1-5-.9 0-1.8-.7-2.1-1.5-.4-.8-1.2-1.5-2-1.5-1.7 0-1.7-.5.1-5.5 2.1-5.8 1.8-9.8-.9-15.5-1.3-2.7-3-7.2-3.7-10-.9-3.3-2.4-6-4.5-8-1.8-1.6-3.6-3.5-4.1-4.2-.4-.8-2-1.9-3.5-2.5-2-.9-2.9-2.2-3.4-5-.3-2.1-1.4-4.9-2.3-6.3-2.6-4.1-3.9-6.3-5.9-10.6-2.3-4.9-6.3-8.1-16.6-13.4-7.9-4.1-12-4.8-18-3zm-12.2 51c-.6.6-1.5.6-2.4 0-1.3-.9-1.3-1.1 0-2 1.8-1.1 3.9.5 2.4 2zm12.6 19c0 .5-.2 1-.4 1-.3 0-.8-.5-1.1-1-.3-.6-.1-1 .4-1 .6 0 1.1.4 1.1 1zm8 94.7l-.1 4.8-1.5-2.8c-.8-1.5-1.2-3.7-.9-4.7 1.1-3.6 2.5-2.1 2.5 2.7zm5 16c0 1.6-2.6 1.7-3.5.3-.4-.6-.1-1.8.6-2.6 1-1.2 1.4-1.2 2-.2.5.7.9 1.9.9 2.5zm19.6 24.2c.3 5.5-.5 7.1-6 13.1-.7.8-1.7 3.9-2.1 6.7-.5 3.6-1.2 5.3-2.1 5.3-.8 0-1.4.4-1.4 1 0 .5-.4 1-.9 1-1.5 0-1.8-3.4-.4-4.5 2-1.6 2.7-8.7 1.1-10.9-1.3-1.7-1.6-1.7-3-.2-3.1 3-4.4 1.6-4-4.4 0-.8-.5-1.8-1.1-2.2-.6-.4 0-.9 1.7-1.4 2-.5 3-.2 4.1 1.2 1.3 1.8 1.4 1.8 2 .1.4-1 2-2.4 3.6-3.3 2-1 2.9-2.2 2.9-3.8 0-2.5 1.4-3.6 3.9-3.3 1 .1 1.5 1.9 1.7 5.6zM350.2 799c.3 1.6.1 3.5-.4 4.2-.4.8-.8-.4-.8-3 0-4.9.6-5.5 1.2-1.2zM381.2 559.9c.2.7.7 1.2 1.1 1.2 1.2-.1.9-1.5-.3-2-.7-.2-1.1.2-.8.8zM532.5 588.9c-2.5.5-2.7.8-1.2 1.4 3 1.2 5.7.8 5.7-.8 0-.8-.3-1.4-.7-1.4-.5.1-2.1.4-3.8.8zM564.6 612.8c-1.1 1.8 3.2 11.7 5.1 12 5.4.7 5.6-6.1.3-8.1-1.7-.6-3-1.7-3-2.4 0-1.5-1.7-2.6-2.4-1.5zM263.3 618.6c-.4 1-1.3 2.4-2.2 3-1.1.9-1.4 3-1.3 9 .2 4.3.4 8 .7 8.2.2.3 1.1-1.4 2-3.6 1.7-4.1 3.7-5.7 5.8-4.6.7.3.3-.2-.7-1-1.4-1.1-2.1-3.2-2.4-6.9-.4-5.9-.8-6.8-1.9-4.1zM206.6 619.8c-1.1 1-.6 6.8.6 8 3 3 6.5-.7 4.9-5.1-.9-2.3-4.3-4.1-5.5-2.9zM274.7 627.9c-2.2 3.7-2.1 4.7.2 5.4 2.3.6 3.3-2 2.2-5.8l-.6-2.6-1.8 3zM271.2 640.2c-2.4 2.4-.9 9.8 1.9 9.8.4 0 1.2-1.3 1.9-2.9 1-2.4.9-3.3-.5-5.5-2-3-1.8-2.9-3.3-1.4zM298.6 660.3c-1.9 1.4-1.3 4.7 1 4.7.9 0 1.4-1.1 1.4-3 0-3.4 0-3.4-2.4-1.7zM297.3 667.7c-.9.3-1.3 2.9-1.3 7.9v7.4l2.5-1.2c3.5-1.6 5.3-7.6 3.5-11.7-1.2-3-2.2-3.5-4.7-2.4zM271 672.5c0 1.5-.5 3.5-1 4.6-.8 1.4-.7 2.5.3 3.9.8 1.1 1.7 1.7 2 1.3 1.1-1 .8-11.1-.3-11.8-.6-.4-1 .5-1 2zM692 686.2c0 .2.8 2 1.9 4.1 1.5 2.9 2.1 3.4 3 2.4.6-.8 1.2-2.4 1.3-3.8.3-2-.2-2.4-2.9-2.7-1.8-.2-3.3-.2-3.3 0zM270.7 693.1c-.7 2.6.2 7.7 1.4 8.5.5.3.9-2 .9-5 0-5.6-1.3-7.5-2.3-3.5z"/><path d="M393 698.5c0 .3.7 1.3 1.5 2.1 1.7 1.7 1.8 5.7.6 12.1-.5 2.4-.4 4 0 3.7.5-.3.9-.1.9.5s.6.8 1.4.5c.9-.4 1.5-2.8 1.8-7.2.5-7.9.2-9.8-2-10.6-1-.3-2.3-.9-2.9-1.2-.7-.3-1.3-.3-1.3.1zM770.5 698.9c-2.9.7-2.8.8 1.7 1.5 4.9.8 9.2.1 8.3-1.5-.7-1-5.5-1-10 0zM390 700c0 .5.5 1 1.1 1 .5 0 .7-.5.4-1-.3-.6-.8-1-1.1-1-.2 0-.4.4-.4 1zM425.7 702.4c-.6 1.5.1 2.6 1.5 2.6.4 0 .8-.9.8-2 0-2.3-1.5-2.7-2.3-.6zM441.2 702.2c-1.8 1.8-1.4 2.8 1.2 2.8 2.8 0 4.2-2.6 2-3.4-2-.8-1.8-.8-3.2.6zM434 703.7c0 2.3 1.1 3.8 3.3 4.6 2.2.8 2.2.3 0-1.9-1.3-1.3-1.4-1.9-.5-2.2 1.6-.5.5-2.2-1.4-2.2-.8 0-1.4.8-1.4 1.7zM271.5 707c-.3.5-.1 1 .4 1 .6 0 1.1-.5 1.1-1 0-.6-.2-1-.4-1-.3 0-.8.4-1.1 1zM270.8 726.7c-.1 2.1 0 5.4.1 7.4.2 3.4 0 3.7-3.1 4.2-3.8.5-6.8-.7-6.8-2.9 0-2.4-2.5-1.1-2.8 1.5-.6 3.9 1.5 5.2 8 5l5.8-.2.2-3.6c.4-8.7.2-15.1-.4-15.1-.5 0-.9 1.7-1 3.7zM213.5 726.3c-.4 1-.5 2.1-.1 2.4 1 1 1.8-.4 1.3-2.4-.4-1.7-.4-1.7-1.2 0zM247.8 729.7c-.6 2.3.1 4.5 1.3 3.7 1.2-.7 1.2-5.4 0-5.4-.5 0-1.1.8-1.3 1.7zM303.7 730.5c-.4.8-.2 1.7.3 2 .6.4 1-.3 1-1.4 0-2.5-.6-2.7-1.3-.6zM224.8 731.7c.6.2 1.8.2 2.5 0 .6-.3.1-.5-1.3-.5-1.4 0-1.9.2-1.2.5zM736 732.5c0 .8 1.3 2.9 2.9 4.8 2.4 2.7 3 4.5 3.6 10.2.3 3.9.2 9.4-.3 12.3-.8 4.4-.6 5.7.8 7.4 1.6 2 1.7 2 4.8-2 1.8-2.2 3.2-5 3.2-6.3 0-1.3.3-3.4.6-4.6.6-2 1.1-2.2 4.7-1.6 3.9.6 4 .5 3.5-2-.4-1.9-.1-2.7.8-2.7 1.6 0 1.9 3.6.4 4.5-1.2.8-1.3 5.5-.1 5.5.5 0 1.4-.7 2.2-1.6.9-1.2 3.1-1.5 8.8-1.5 4.2.1 12.8 0 19.1-.2 6.3-.2 12 0 12.6.4 1.2 1 8-.7 8.9-2.1 1-1.6 5.5-1.1 6.2.5.4 1.2 2 1.5 7.2 1.4 3.6-.1 8.6.4 11.1 1.1 5.7 1.7 24.5 1.9 26.2.2 1.3-1.3 5.7-1.6 7.4-.4.7.4 1.3 1.6 1.5 2.7.5 2.7 6.2 3.2 10.4.9 2.8-1.5 4.6-1.6 14.6-.8 6.3.5 12.3.8 13.4.6 2-.3 12.1-15.4 10.7-15.9-1.7-.7-37.4-2.4-65.2-3.2-16.8-.5-39-1.2-49.5-1.5-10.4-.3-22.4-1-26.5-1.5-4.1-.5-13.1-1.3-20-1.6-9.3-.5-13.4-1.2-16.2-2.6-4.4-2.3-7.8-2.5-7.8-.4zm20.7 12.7c-.3.8-.6.5-.6-.6-.1-1.1.2-1.7.5-1.3.3.3.4 1.2.1 1.9zM265 748.2c-2.6 2.4-2.5 3.9.2 6.2l2.2 1.9-2.7 2.3c-3 2.5-3.5 5.5-1.3 7.6.9.9 1.4 4 1.5 8.6.1 6.9 0 7.3-2.4 8.2-2 .8-3.2.5-6-1.5-4.6-3.1-9.5-4.2-10.6-2.4-1.3 2.1-1.1 6.5.4 7.7.8.7 3.2.7 7.8-.2l6.6-1.2 1.1 2.8c.9 2.6 4.8 5.1 6.4 4.2.3-.2.9-2.3 1.3-4.7.4-2.3 1.1-4.7 1.6-5.2.4-.6.2-3.1-.5-5.5-.9-3.2-1-5.4-.3-8 1.5-5.3 2.1-20 .8-20-.6 0-1.1-.6-1.1-1.3 0-2-2.7-1.7-5 .5zM292 761.2c0 3 .1 3.1 1.6 1.6.9-.9 1.4-2.4 1.1-3.2-1.1-2.7-2.7-1.7-2.7 1.6zM247.2 763.2c-.7.7-1.2 1.8-1.2 2.5s-.4 1.3-1 1.3c-.5 0-1 .9-1 2 0 3.2 3.7.7 4.5-3.1.8-3.5.4-4.4-1.3-2.7zM308 765.5c0 .8.6 1.5 1.4 1.5.7 0 1.9-.7 2.6-1.5 1.1-1.3.8-1.5-1.4-1.5-1.6 0-2.6.5-2.6 1.5zM313.9 765.5c-.1.8-.2 1.8-.3 2.2-.1.5.6 1.9 1.6 3.1 1.3 2 1.9 2.2 3.7 1.3 2.6-1.4 2.6-2.9.2-5.9-2.2-2.5-5-2.9-5.2-.7zM225.5 772c-.3.5.1 1 1 1s1.3-.5 1-1c-.3-.6-.8-1-1-1-.2 0-.7.4-1 1zM305.6 784.5c-.9.9-1.6 2.5-1.6 3.6 0 1.6.4 1.9 2.3 1.3 2.8-.8 2.6-.6 2.9-3.4.4-2.9-1.4-3.6-3.6-1.5zM243.5 794c-.3.5.1 2.3 1 3.9.8 1.7 1.5 3.7 1.5 4.5 0 2.7 3.6 3.6 14.5 3.6 11.7 0 13.2-.8 10-5.6-1.7-2.6-1.8-2.6-9.9-1.9-7 .5-8.4.4-9.6-1-2-2.4-6.8-4.7-7.5-3.5zM295.2 798.9c-.8.4-1.2 1.9-1 3.2.3 2.2.9 2.5 7.8 3.1 4.1.3 9.5.4 11.9.1 3.7-.5 4.1-.7 2.5-1.6-1.1-.6-4-1.1-6.6-1.2-3.5-.1-5.3-.7-6.8-2.3-2.1-2.3-5.5-2.8-7.8-1.3zM348.4 820.4c-.3 1.4-.3 4.3.1 6.4l.7 3.7 1.3-5c1.1-4.2 1.1-5.2 0-6.4-1.2-1.2-1.5-1-2.1 1.3zM238.5 826.7c-.4 1.9-.2 3.1 1 3.9.8.6 3 5.7 4.8 11.2 1.9 5.5 3.9 10.8 4.6 11.6 1.4 1.7 4.8 2.1 6.7.8 2.1-1.3 2.5-4.8.8-6.2-4.2-3.6-6.8-12.7-4.5-16.8 1.4-2.7.7-4.2-1.8-3.7-1 .2-3.1-.5-4.7-1.6-4-2.6-6.1-2.4-6.9.8zM377.4 835.5c-5.2 3.1-8.3 9.1-6.2 12.4 1.9 3.2 9.2 6.4 12.6 5.6 3.2-.7 8.8-5.6 9.7-8.6.4-1 1.5-1.9 2.6-1.9 1 0 1.9-.5 1.9-1 0-.6-.8-1-1.9-1-1 0-2.6-1.1-3.4-2.4-1.7-2.6-6.9-5.6-9.6-5.6-.9 0-3.4 1.1-5.7 2.5zM755.5 840.1c-.9 1.4 0 2.2 1.8 1.7 1.3-.2 1.3-.5.2-1.5-1-.9-1.6-.9-2-.2zM725.5 854.1c5.2 1 17.4 1 20-.1 1.2-.5-2.9-.8-11-.8-9.5 0-11.9.3-9 .9zM813.7 861.7c-2.3 2.2 1.6 3 8.3 1.7 2.2-.5 2.8-.9 1.8-1.5-1.6-1-9.2-1.2-10.1-.2zM442.7 876.7c-1.6 1.6-.4 2.3 4.1 2.3 6.2 0 9.8-1 8-2.1-1.5-1-11.2-1.2-12.1-.2zM761 877c-1.1.7-.7 1 1.8 1 2 0 3.1-.4 2.7-1-.8-1.3-2.6-1.3-4.5 0zM613.8 878.7c.7.3 1.6.2 1.9-.1.4-.3-.2-.6-1.3-.5-1.1 0-1.4.3-.6.6zM197 888.9c0 2.5 5.7 3 39 3.7 43.4.9 37.5 1 62-.5 28.1-1.6 28.1-1.8-.5-2-47.9-.4-96-1.2-98.2-1.6-1.3-.3-2.3-.1-2.3.4zM737.8 891.7c2.3.8 4.2 1.8 4.2 2.3 0 .4 3.3 1.3 7.3 2 3.9.6 11.5 2.1 16.8 3.2l9.6 2.1 4.8-3.4 4.8-3.4-5.4-.8c-3-.5-7.6-1.5-10.3-2.3-3.4-1-9.6-1.4-20.5-1.3-15.1.1-15.5.1-11.3 1.6zM323.5 893c-.8 1.3-.1 2.4 1.4 1.9.6-.3.7-1 .2-1.8-.6-1-1-1-1.6-.1zM541.5 893.7c-1.1.3-2.7 1.1-3.5 1.8-.8.7-3.3 1.6-5.4 1.9-2.1.4-5 1.5-6.3 2.4-1.7 1-6.2 1.8-14 2.3-8.7.6-12 1.2-13.4 2.5-1.1 1-1.6 2.1-1.2 2.5 1.3 1.2 36.5-.6 39.1-2 1.3-.7 6.7-1.7 12-2.2 11.5-1.1 20.1-2.3 22.2-3.3.9-.3 2.1-1.6 2.9-2.8 1.1-1.7 1.1-2.2-.1-2.9-1.4-.9-28.8-1-32.3-.2zM604 894l-18.5.5 22 .7c27.6 1 51.4 1 63.6.1 25.2-1.9-18.4-2.7-67.1-1.3zM352.3 894.7c1.5.2 3.9.2 5.5 0 1.5-.2.2-.4-2.8-.4s-4.3.2-2.7.4zM229.2 905.2c-1.7 1.7.4 3.8 3.9 3.8s4.8-1.9 2.4-3.7c-2.3-1.6-4.7-1.7-6.3-.1zM747.4 906.1c-.3.5.4 1 1.5 1 1.2.1 2.6.3 3.1.4.6.1 1.7.3 2.5.4.8 0 1.5.8 1.5 1.6 0 2.2 2.4 2.9 5 1.5 2.4-1.3 2.2-1.9-.9-2.5-1.1-.2-2.6-.7-3.3-1.1-2-1.3-8.8-2.2-9.4-1.3zM566 920.3c1.4.6 2.8 1.6 3.2 2.2.5.6.8.5.8-.3 0-.7 1.3-1.2 3-1.2s3-.5 3-1c0-.6-2.7-1-6.2-.9-5.6 0-6 .2-3.8 1.2zM413.5 924c-.4.6 1.5 1 4.9 1 3 0 5.8-.5 6.1-1 .4-.6-1.5-1-4.9-1-3 0-5.8.4-6.1 1zM392.5 924.9c-.3.6-1.4 1.1-2.4 1.1s-2.4.7-3.1 1.5c-1.1 1.3-.6 1.5 3.1 1.6 2.4.1 5.5.2 6.9.3 2 .1 2.5-.4 2.5-2.4 0-2.1-.5-2.6-3.2-2.8-1.7-.2-3.4.2-3.8.7zM408.3 926.5c-1.7 1.3-1.7 1.4.7 2.3 2.8 1.1 4 .7 4-1.3s-2.6-2.5-4.7-1zM375 928.9c1.9 1 3.9 1.5 4.4 1.1 1.6-1.5-.5-3-4.2-3h-3.7l3.5 1.9zM344.1 930.7c-9.4.3-11.7.7-12.7 2.1-1 1.4-3.4 1.8-14.6 2-7.3.2-13.5.8-13.8 1.3-.7 1.1-6 2-16.5 2.8l-8 .6 11.8 5.3c16.2 7.4 33.5 14.1 50.2 19.5 28.5 9.2 31.4 9.7 42.5 6.9 13.5-3.4 18.4-4.5 27-5.8 5.2-.9 10.9-2 12.6-2.5 1.6-.5 5.9-1.2 9.5-1.5 3.5-.3 9.1-1.4 12.4-2.5 3.3-1 9.7-2.2 14.2-2.5 4.9-.4 8.4-1.2 8.7-1.9.2-.7 3.8-1.5 9.3-1.9 4.9-.3 11.2-1.5 14.1-2.6 3.1-1.2 7.7-2 11.2-2 3.3 0 6-.4 6-.8 0-1.4-4.2-3-8-3.2-11.3-.4-11.8-.4-15.5 2.4-3 2.3-4.2 2.7-7.3 2.1-2-.3-5.3-.6-7.2-.5-14.2.3-17.1.1-18.7-1.5-1.5-1.5-3.5-1.6-17.7-1-8.9.4-16.9 1.1-17.8 1.6-1 .6-1.8 1.9-1.8 2.9 0 1.1-.3 1.9-.7 1.8-.5-.2-2.3.4-4.1 1.1-3.1 1.3-3.7 1.2-7.5-.7-6-3.1-8-4.5-9.5-6.5-.7-.9-2-1.7-2.9-1.7-2.8 0-8.2-3.2-8.9-5.2-.4-1.4-.9-1.7-1.6-1-.6.6-1.7.8-2.5.5-.9-.4-2.8.8-4.9 3.1-2.7 3-4 3.6-7.3 3.6-4.1 0-5-.7-3.2-2.6.6-.5 1.1-3.4 1.3-6.4l.3-5.4-3.5-.1c-1.9 0-8.6.1-14.9.2zm8.2 7.1c1.5 1.6 1.5 2-.3 5-1.1 1.8-2.4 3.2-2.9 3.2s-1.6.3-2.4.6c-1 .3-1.8-.2-2.2-1.5-.8-2.6-6.4-5.1-11.9-5.2l-4.1-.1 4-.8c2.2-.4 4.4-.6 4.8-.3.4.3 1.3 0 2-.5.7-.6 3-1.2 5.2-1.5 2.2-.2 4.5-.4 5.1-.5.6-.1 1.8.6 2.7 1.6zm-42.3 1.3c0 1.8-.4 2-2.7 1.4-3.4-.8-3.7-1.1-2.8-2.4.3-.6 1.7-1.1 3.1-1.1 1.8 0 2.4.5 2.4 2.1zm4.5 3.9c.3.5-.1 1-.9 1-.9 0-1.6-.5-1.6-1 0-.6.4-1 .9-1 .6 0 1.3.4 1.6 1zM583 939c-1.1.7-.1 1 3.5.9 3.7 0 4.5-.3 3-.9-2.7-1.2-4.7-1.2-6.5 0zM538.7 940.6c-.4.4-.7 1.3-.7 2.1 0 1 2.6 1.3 11.7 1.3 11.9 0 14.1-.5 6.3-1.5-4.7-.6-9.8-1.3-14-2.1-1.4-.3-2.9-.2-3.3.2zM664 947.9c-2.8.9-24 2.1-46.8 2.6-8.4.2-19 1.1-23.5 1.9-4.5.8-14.7 1.8-22.7 2.1-8 .4-17.6 1.3-21.4 2.1-3.7.7-12.7 1.6-20 1.9-7.2.4-16.5 1.3-20.6 2-4.2.8-11.7 1.9-16.9 2.4-5.1.6-9.8 1.4-10.4 1.9-1.6 1.2-7.4 2.1-17.2 2.6-4.5.3-9.3 1.1-11 2-1.8.9-5.5 1.6-9.2 1.6-3.7 0-8.2.8-11 1.9-2.6 1-8.6 2.1-13.2 2.4-4.6.4-8.9 1.1-9.5 1.6-.6.5-3.8 1.3-7.1 1.7l-6 .7 10 1.9c89.6 16.4 183.9 6.7 271.5-28l14.5-5.7-5.8-.3c-3.1-.2-8.3.2-11.4.8-3.8.7-6 .7-6.7 0-1.1-1.1-2.1-1.1-5.6-.1z"/></svg>