<svg width="239.134mm" height="239.134mm" viewBox="0 0 239.134 239.134" version="1.1" xml:space="preserve" xmlns="http://www.w3.org/2000/svg" xmlns:svg="http://www.w3.org/2000/svg"><g transform="translate(15.017372,-29.09288)"><g transform="matrix(1.0011032,0,0,1.0000015,0.01656717,-4.2394705e-5)"><path style="display:inline;fill:#ffffff;fill-opacity:1;stroke-width:0.567531" d="m 116.28598,210.31787 c 5.5455,-0.39531 14.55856,-2.27763 13.87873,-2.89847 -0.41331,-0.37742 -3.7108,-1.40526 -11.61163,-3.6194 -3.76626,-1.05547 -7.08952,-2.05433 -7.38503,-2.21969 -0.59213,-0.33139 -0.71527,-0.30363 5.46189,-1.23079 28.80207,-4.32304 47.36062,-23.04486 51.06553,-51.51479 1.1275,-8.66427 1.08341,-8.67416 -4.13661,-0.92828 -4.34963,6.45435 -7.06528,10.42024 -7.37371,10.76853 -0.13531,0.15277 0.14095,-1.78199 0.61386,-4.29949 5.70114,-30.34788 -8.0468,-56.174915 -35.95716,-67.549525 -4.82875,-1.967904 -4.98793,-2.516339 1.80736,6.226558 7.42049,9.547267 7.56375,9.797987 4.59914,8.048627 -25.99177,-15.337129 -53.896197,-11.699339 -74.401335,9.69943 -6.775979,7.07128 -7.069402,7.02504 8.405634,1.3245 3.18806,-1.17438 5.860206,-2.04446 6.296845,-2.05032 0.152665,-0.003 -0.685702,0.88628 -1.863037,1.97404 -23.760779,21.95316 -28.027287,51.14296 -11.337803,77.56889 2.380372,3.76904 2.339001,4.15556 1.55623,-14.53852 l -0.180031,-4.29949 2.349297,4.64344 c 11.885418,23.49177 32.085457,36.72715 53.74038,35.2115 0.85129,-0.0595 2.86344,-0.20212 4.47145,-0.31675 z"/><path style="display:inline;fill:#f9c468;fill-opacity:1;stroke-width:0.436562" d="M 109.0794,227.22789 C 82.416064,226.39669 61.372459,212.19768 46.339848,184.89483 l -3.185668,-5.78596 0.418811,5.44575 c 1.820975,23.678 1.856331,23.18588 -1.33002,18.51044 -22.340454,-32.7809 -18.221547,-69.99591 10.945567,-98.89507 1.445216,-1.43193 2.469302,-2.59586 2.275742,-2.5865 -0.553568,0.0276 -3.904561,1.2488 -7.89646,2.87967 -19.376919,7.91636 -19.002677,7.96202 -10.72086,-1.30776 25.062028,-28.051708 60.29647,-33.902131 93.9453,-15.598955 3.83797,2.087667 3.64515,1.775988 -6.19034,-10.005618 -9.00681,-10.788992 -8.7806,-10.100377 -2.56837,-7.818067 35.90696,13.191907 54.48966,45.34343 48.60228,84.09096 -0.48836,3.21429 -0.75308,5.6807 -0.58821,5.48091 0.3758,-0.45544 3.64482,-5.60631 8.87624,-13.98604 6.27826,-10.05654 6.33464,-10.04594 5.28824,0.99425 -3.43843,36.27702 -26.14988,60.84693 -62.4926,67.60632 -7.79439,1.44968 -7.63943,1.40902 -6.87365,1.80313 0.38216,0.19667 4.64184,1.31649 9.46592,2.48847 10.11994,2.45857 14.34819,3.61628 14.88918,4.07671 0.88984,0.7574 -10.45946,3.54428 -17.47618,4.29135 -2.03462,0.21666 -4.58063,0.48656 -5.65782,0.59986 -1.0772,0.11326 -4.22158,0.13591 -6.98755,0.0492 z m 4.89898,-31.24828 c 4.26577,-0.30408 11.19889,-1.75202 10.67594,-2.22959 -0.31793,-0.29032 -2.85446,-1.08097 -8.93202,-2.78415 -2.89712,-0.8119 -5.45348,-1.58026 -5.68079,-1.70746 -0.45549,-0.25491 -0.55021,-0.23356 4.20145,-0.94676 22.15544,-3.32541 36.43125,-17.72681 39.28118,-39.62676 0.86731,-6.66482 0.83339,-6.67243 -3.18201,-0.71406 -3.34587,4.96488 -5.43483,8.01557 -5.67208,8.28348 -0.10409,0.11752 0.10842,-1.37076 0.4722,-3.3073 4.38549,-23.34452 -6.18985,-43.21147 -27.65936,-51.96117 -3.71442,-1.513772 -3.83687,-1.935645 1.39028,4.78966 5.70807,7.34405 5.81827,7.53691 3.5378,6.19125 -19.99367,-11.79779 -41.458613,-8.99949 -57.231796,7.4611 -5.212292,5.43945 -5.438002,5.40388 6.465872,1.01885 2.452354,-0.90337 4.507851,-1.57266 4.843727,-1.57717 0.117435,-0.002 -0.527463,0.68175 -1.433105,1.51849 -18.277523,16.88705 -21.559452,39.34074 -8.721387,59.66838 1.831055,2.89926 1.799231,3.19658 1.1971,-11.18348 l -0.138486,-3.3073 1.807152,3.57188 c 9.142629,18.07059 24.681121,28.25165 41.338753,27.08577 0.65484,-0.0458 2.20265,-0.15548 3.43958,-0.24366 z"/><path style="display:inline;fill:#f9583b;fill-opacity:1;stroke-width:0.264583" d="M 70.261916,266.7927 C 48.814521,253.85065 32.881892,231.51766 28.15201,207.76667 26.612479,200.03596 25.725969,186.2725 26.82245,187.1247 c 0.277688,0.21582 3.973901,3.84722 8.213807,8.06979 l 7.708921,7.67738 0.139761,5.82084 c 0.500068,20.82721 10.754791,41.94342 27.899778,57.45036 2.90267,2.62535 2.853203,2.68682 -0.522801,0.64963 z m 66.405624,-7.97339 c -22.1088,-1.17472 -41.335985,-9.51056 -56.989304,-24.70741 l -3.402981,-3.30375 11.618915,-0.0114 11.618915,-0.0114 2.819165,2.87027 c 13.9185,14.17086 34.2103,21.83284 57.89464,21.86047 6.68194,0.008 6.69078,0.009 5.20189,0.45069 -7.11237,2.11213 -19.52527,3.34321 -28.76124,2.85247 z M 66.915887,232.76589 C 52.867049,218.17988 45.201469,198.33033 47.605791,182.76354 c 1.031076,-6.67571 1.703914,-9.46541 3.174748,-13.16302 0.974913,-2.45089 1.054246,-2.47707 1.662179,-0.54848 1.373722,4.35795 5.831684,11.26307 11.036835,17.09541 l 1.603229,1.79641 -0.540001,2.04005 c -3.342505,12.62751 -1.509181,30.08115 4.614066,43.92689 0.90764,2.05234 0.771604,1.98284 -2.24096,-1.14491 z m 65.186453,1.68674 c -13.23991,-1.14489 -25.52114,-5.6683 -34.838758,-12.83178 -1.949484,-1.41877 -3.214254,-2.76102 -4.554289,-4.0646 -4.492985,-4.35741 -7.740031,-8.81081 -10.505456,-14.40846 -2.106554,-4.26401 -2.106054,-4.26769 0.416402,-3.07589 4.164568,1.96766 13.427948,3.9906 18.273661,3.9906 2.94477,0 3.71236,0.23488 4.20929,1.28806 1.71916,4.4805 7.66267,10.65046 9.60279,12.50253 6.89272,6.57011 14.99564,11.81255 24.14069,15.61861 l 3.04525,1.2674 -3.57187,-0.0288 c -1.96453,-0.0159 -4.7625,-0.13179 -6.21771,-0.25763 z m 12.10003,-7.88853 -1.39372,-0.14431 8.05897,-8.05268 8.05894,-8.05269 4.97645,-0.0553 c 20.52357,-0.22809 40.45317,-9.60697 57.07308,-26.85863 3.71023,-3.85125 3.77158,-3.70483 0.53263,1.27097 -15.59874,23.9633 -40.28895,39.30704 -66.9168,41.58544 -4.14808,0.35492 -8.64452,0.48788 -10.38955,0.3072 z M -3.2835272,207.89896 c -7.5531478,-30.83364 1.1126893,-62.872 22.9700322,-84.92223 l 2.61375,-2.63682 0.06893,11.57681 0.06893,11.57681 -2.422017,2.3048 c -14.2228516,13.5345 -21.8953741,33.15648 -22.4201672,57.33813 l -0.1665181,7.67292 z M 139.37838,205.5963 c -0.50932,-0.10229 -2.20453,-0.37558 -3.76714,-0.6073 -3.31988,-0.49232 -7.69257,-1.67347 -10.45948,-2.82534 l -1.95429,-0.81358 2.50116,-0.98379 c 5.18192,-2.03822 11.74202,-6.37785 16.47023,-10.89538 l 1.59986,-1.52858 1.22922,0.36994 c 12.21338,3.67569 28.96664,2.15591 43.79778,-3.97312 3.54999,-1.46704 3.54812,-1.49432 0.1175,1.70165 -15.06884,14.03821 -35.9537,22.2832 -49.53484,19.5555 z M 18.201579,184.54948 c 0.03079,-16.35814 4.464949,-31.32535 12.498731,-42.18864 1.527008,-2.06483 5.755153,-6.96806 5.755153,-6.67406 0,0.0956 0.780701,-0.55642 1.734894,-1.44901 4.001871,-3.74356 11.746588,-8.60846 15.007014,-9.42678 l 0.679378,-0.17051 -1.122116,2.73549 c -0.975582,2.37826 -1.559518,4.25172 -2.543212,8.15945 -0.411308,1.63392 -1.048499,6.78944 -1.228368,9.93872 l -0.174601,3.05706 -2.447124,1.44021 c -10.773669,6.34064 -20.800845,18.67549 -26.71096,32.85828 -1.410798,3.38555 -1.452017,3.43448 -1.448789,1.71979 z m 168.475571,-8.31803 c -0.0719,-0.1909 -0.15327,-5.28819 -0.18071,-11.3273 l -0.0499,-10.98021 3.38876,-3.43959 c 14.19193,-14.40479 21.55933,-33.99345 21.6237,-57.493584 l 0.0183,-6.693609 0.46106,1.534234 c 8.46315,28.161339 -0.42156,63.356519 -21.49348,85.142569 -3.12335,3.22921 -3.61743,3.65638 -3.76777,3.25751 z m -31.08214,-4.88821 c 2.44163,-4.89474 4.38843,-13.8383 4.41227,-20.27007 l 0.009,-2.32161 1.2277,-0.72109 c 12.00105,-7.04886 21.18026,-17.8712 27.59646,-32.53641 0.7483,-1.71033 1.46653,-3.34781 1.5961,-3.63885 0.62579,-1.40561 0.16989,8.15274 -0.66321,13.90443 -0.73218,5.05515 -3.44654,15.38392 -4.17697,15.89431 -0.48421,1.57767 -1.19782,2.64923 -2.04284,4.36663 -5.85539,11.96014 -18.06089,23.48342 -27.98564,26.42138 l -0.61138,0.18099 0.63836,-1.27971 z m 0.85831,-43.52759 c -2.10669,-5.43591 -5.66457,-10.89469 -11.03575,-16.93195 l -1.50143,-1.68763 0.65112,-2.50687 c 1.44769,-9.24159 1.10725,-22.655187 0.64383,-25.393367 -0.93784,-5.546584 -2.88049,-12.141096 -5.13892,-17.444609 -1.23367,-2.8971 -1.22312,-2.895057 1.89032,0.365925 18.34504,19.214353 25.13041,47.133161 15.71416,64.656841 l -0.47244,0.87919 z M -14.744833,116.08854 C -1.6430629,93.088905 22.441863,75.988628 47.653612,71.785698 c 6.112129,-1.018927 18.435185,-1.807337 18.435185,-1.179457 0,0.132992 -3.602361,3.842713 -8.005247,8.243824 l -8.005246,8.002018 -3.96715,0.0028 c -20.956918,0.01497 -41.124727,9.362975 -58.107834,26.933647 -3.029894,3.13472 -3.400205,3.44464 -2.748153,2.29998 z m 34.399255,-4.54832 c 6.989183,-6.67871 15.176717,-12.251156 22.617948,-15.393806 2.894587,-1.222467 9.167993,-3.365725 9.567656,-3.268707 0.09406,0.02283 1.362599,-0.189471 2.818972,-0.471789 9.740238,-1.888144 21.6296,-0.802291 29.352208,2.680729 l 1.789049,0.806889 -1.190625,0.396322 c -4.993772,1.662274 -12.243223,6.271892 -17.415984,11.074082 l -1.937856,1.79904 -2.824644,-0.71236 c -12.425412,-3.13359 -28.371514,-1.46123 -42.371817,4.44379 -3.087452,1.30222 -3.109087,1.22986 -0.404907,-1.35419 z m 154.541778,-9.31413 -8.17695,-8.183208 0.16624,-2.155815 c 1.52328,-19.753527 -9.88656,-44.270012 -28.61996,-61.496107 -4.85468,-4.464061 7.16347,3.586062 13.46912,9.022035 17.20697,14.833759 27.83695,34.070772 30.81928,55.773463 0.40002,2.911015 0.85034,13.658712 0.61825,14.755172 -0.0718,0.33892 -2.35035,-1.78538 -8.27598,-7.71554 z m -47.02517,-4.793491 c -3.93186,-2.077503 -11.13448,-3.75058 -18.43908,-4.283162 l -4.3204,-0.315003 -0.54142,-1.072946 C 98.462695,81.045556 84.523003,69.488622 69.851479,63.557757 c -2.88167,-1.164895 -2.478538,-1.296477 3.167829,-1.033976 18.14961,0.843777 33.744142,7.111928 43.991832,17.682321 l 3.25969,3.689898 c 2.8914,3.359443 6.6583,9.596408 7.86985,13.030369 0.41587,1.17865 0.35907,1.208296 -0.96965,0.50623 z M 114.57017,66.479164 h -4.90785 l -3.72895,-3.643392 C 91.84523,49.070872 73.556823,42.162958 49.816922,41.639419 l -7.408334,-0.163377 2.933642,-0.721561 c 24.503404,-6.026891 51.617875,-1.372317 71.81115,12.327374 4.98927,3.38487 15.34583,12.263374 15.34583,13.155731 0,0.139007 -2.69615,0.241581 -6.35,0.241581 0,0 -7.10834,0.08028 -11.57904,-3e-6 z M 42.011713,41.740622 c 0,-0.07276 0.05953,-0.132292 0.132292,-0.132292 0.07276,0 0.132292,0.05953 0.132292,0.132292 0,0.07276 -0.05953,0.132292 -0.132292,0.132292 -0.07276,0 -0.132292,-0.05953 -0.132292,-0.132292 z"/></g></g></svg>
