<svg version="1.1" width="512" height="512" viewBox="0 0 256 256" xmlns="http://www.w3.org/2000/svg" xmlns:svg="http://www.w3.org/2000/svg"><g id="g8" style="display:inline"><g><path style="display:inline;fill:#8afbfd;stroke-width:1.33333" d="M 30.703657,211.05891 C 18.669239,197.38708 8.06023,176.42756 3.0795329,156.48375 c -3.16685179,-12.68078 -3.16685179,-44.28672 0,-56.967501 C 14.945792,52.001116 49.546095,16.750165 97.138111,3.6889288 c 14.674629,-4.0273298 47.049159,-4.0273298 61.723779,0 20.41047,5.6014859 44.67344,18.6145762 55.05423,29.5275242 l 3.91612,4.11688 L 37.163439,217.33333 c -0.515244,0 -3.422146,-2.82349 -6.459782,-6.27442 z"/><path style="display:inline;fill:#1dbcd0;stroke-width:1.33333" d="m 50.226361,204.31876 -31.651682,-31.63015 30.091988,-0.88236 15.111136,19.01124 z m -36.876198,-100.86655 23.726553,15.3887 -0.205024,8.80259 z m 192.467007,-59.06099 2.18528,2.735515 -11.2382,11.213375 z m -40.75849,2.401463 -16.93903,-5.636948 -8.57264,-27.919616 29.44357,30.591055 z m 1.66514,41.459874 -4.28378,-3.587497 c -6.02866,-5.04876 -17.45137,-9.987348 -26.76329,-11.486989 -22.98982,-3.702403 -47.218583,9.63557 -57.810998,31.825049 -7.721151,16.17462 -5.517179,39.60163 5.123627,54.46135 l 5.039105,7.19211 z"/><path style="display:inline;fill:#fcfdfd;stroke-width:1.33333" d="m 57.212686,197.70982 3.827283,-10.33678 -12.373302,-15.56679 -30.091988,0.88236 -5.236367,-19.1624 23.328355,-17.08012 0.205025,-8.80259 0.205024,-8.80259 -23.726553,-15.3887 5.820218,-21.155863 28.612884,1.737824 5.92738,-7.793992 5.92738,-7.793994 -8.97021,-26.58633 17.289498,-12.526522 25.036058,15.680546 c 1.594841,-0.402389 6.451268,-1.587948 9.846569,-2.463908 L 109.01321,40.957316 116.9307,14 l 22.61631,-0.763881 8.57264,27.919616 16.93903,5.636948 22.66713,-16.772428 18.09136,14.370965 -9.05292,13.94889 -30.04043,29.912447 -4.28378,-3.587497 c -6.02866,-5.04876 -17.45137,-9.987348 -26.76329,-11.486989 -22.98982,-3.702403 -47.218583,9.63557 -57.810998,31.825049 -7.721151,16.17462 -5.517179,39.60163 5.123627,54.46135 l 5.039105,7.19211 z"/><path style="display:inline;fill:#19a5b5;stroke-width:1.33333" d="m 109.95277,253.95391 c -21.757923,-3.17786 -40.943753,-11.35955 -59.769114,-25.48822 -6.334344,-4.754 -9.92267,-8.24671 -13.020217,-11.13236 L 217.83224,37.333333 c 10.92935,12.251066 19.10563,24.015347 23.89691,33.850323 9.70524,19.921769 12.91737,34.050144 12.91737,56.816344 0,30.38069 -7.66225,53.14177 -26.20832,77.85297 -19.48879,25.96732 -49.63851,43.34976 -83.55307,48.17148 -15.93364,2.26532 -18.98146,2.25918 -34.93236,-0.0705 z"/><path style="display:inline;fill:#f98c15;stroke-width:1.33333" d="M 109.07027,215.30511 C 98.554963,213.21183 79.951192,204.68293 73.333333,198.92152 L 68.666667,194.85879 194,67.84638 l 4.51577,5.076809 c 2.48368,2.792247 6.86262,10.026983 9.73099,16.077194 12.10131,25.525167 11.93139,53.605587 -0.47757,78.916977 -7.91051,16.13559 -23.71624,31.94132 -39.85183,39.85183 -18.35384,8.998 -38.52604,11.58124 -58.84709,7.53592 z"/><path style="display:inline;fill:#fddbb6;stroke-width:1.33333" d="m 116.72507,199.66667 c -1.30009,-4.58334 -2.51971,-8.93334 -2.71026,-9.66667 -0.19055,-0.73333 -3.12815,-2.15143 -6.52801,-3.15132 -7.31078,-2.88722 -7.47762,-0.81806 -13.483625,3.81553 -8.106639,5.81172 -8.106639,5.81172 -8.106639,5.81172 l -11.722591,-7.30236 c 0,0 20.268775,-20.57321 30.499595,-30.80403 l 4.75966,2.74017 c 20.06957,11.55419 49.61732,-0.29932 54.63116,-21.91352 2.63205,-11.34653 -1.09358,-28.68438 -6.04697,-34.88514 l 17.54416,-17.7792 3.84241,5.012603 C 182.76287,95.926311 182.95771,96 193.34953,96 h 10.54716 l 4.24936,14.55406 -9.58186,6.84504 C 192.41311,121.79328 192,121.80771 192,127.99221 c 0,6.34018 0.0512,6.41377 8.01289,11.52767 3.71891,2.3887 8.21919,5.19495 8.21919,5.19495 0,0 -4.53335,12.85335 -5.07862,14.6629 l -9.36511,0.0198 c -10.08806,0.0213 -10.12038,-0.0528 -14.15543,4.90189 -5.82308,5.93264 -3.27146,7.05945 -0.50843,14.54332 l 3.53592,9.57724 -12.66516,8.99022 -8.54177,-6.09363 c -8.19373,-5.84534 -8.30989,-6.03343 -13.64164,-4.43599 -6.26355,1.8766 -8.18845,4.44468 -10.58325,14.11943 l -1.73272,7 h -8.2035 -8.2035 z"/></g></g></svg>
