<svg version="1.1" width="512" height="512" viewBox="-2.601 -1 828.49902 828.49902" xmlns="http://www.w3.org/2000/svg" xmlns:svg="http://www.w3.org/2000/svg"><g style="display:inline" transform="translate(-324,-311.327)"><g><path style="fill:#c30e0e" d="M 438.26509,1137.0354 C 379.39374,1130.2984 333.34524,1085.3815 325.45764,1027 c -0.78023,-5.775 -1.42738,-11.7375 -1.43812,-13.25 L 579,1011 l -0.004,5.25 c -0.008,11.688 -4.03537,29.2819 -10.04207,43.8745 -20.71618,50.328 -76.43618,83.1194 -130.68903,76.9109 z m 568.00001,0 C 943.49776,1129.8526 897.82447,1081.5158 892.60766,1016.75 l -0.46315,-5.75 h 255.15259 l -0.5852,8.25 c -5.0594,71.3337 -70.0536,125.8409 -140.4468,117.7854 z M 324,469 h 256 l -1.33088,511 H 324 Z m 568,0 h 255 V 980 H 892 Z M 324.01952,437.05233 c 0.20634,-29.06582 14.33844,-64.00917 36.16879,-86.62135 67.97543,-70.40987 185.87652,-41.23204 213.92245,52.94092 2.6193,8.79514 4.88037,22.39184 4.88543,29.3781 L 579,438 Z M 529.31634,400.75 C 525.66528,369.29748 490.19878,353.35434 465.38771,372.01238 456.06768,379.02108 449,391.77691 449,401.58909 V 405 h 40.40484 40.40485 z m 363.29132,31.5 c 4.25563,-52.83283 34.83181,-94.74714 82.21994,-112.70837 79.1316,-29.99276 165.8856,25.63199 171.8843,110.20837 l 0.5852,8.25 H 892.14451 Z M 1023,403.63649 c 1.4706,0.0536 -4.5532,-18.88248 -9.7643,-25.13649 -18.28163,-21.94037 -54.67893,-17.65798 -67.26826,7.91456 -2.81693,5.72201 -6.28452,17.85037 -4.3047,17.83544 z"/><path style="fill:#a21012" d="M 579.13774,800.07157 580,469 859.98232,696.53086 861.5,1016.8121 Z"/></g></g></svg>
